<?xml version="1.0" encoding="UTF-8" standalone="no"?>
<!-- Created with Inkscape (http://www.inkscape.org/) -->

<svg
   xmlns:dc="http://purl.org/dc/elements/1.1/"
   xmlns:cc="http://creativecommons.org/ns#"
   xmlns:rdf="http://www.w3.org/1999/02/22-rdf-syntax-ns#"
   xmlns:svg="http://www.w3.org/2000/svg"
   xmlns="http://www.w3.org/2000/svg"
   xmlns:sodipodi="http://sodipodi.sourceforge.net/DTD/sodipodi-0.dtd"
   xmlns:inkscape="http://www.inkscape.org/namespaces/inkscape"
   width="38.946667mm"
   height="46.736004mm"
   viewBox="0 0 138 165.60001"
   id="svg2"
   version="1.1"
   inkscape:version="0.91 r13725"
   sodipodi:docname="telcopal-col.svg">
  <defs
     id="defs4" />
  <sodipodi:namedview
     id="base"
     pagecolor="#ffffff"
     bordercolor="#666666"
     borderopacity="1.0"
     inkscape:pageopacity="0.0"
     inkscape:pageshadow="2"
     inkscape:zoom="3.5816521"
     inkscape:cx="71.006865"
     inkscape:cy="81.987317"
     inkscape:document-units="px"
     inkscape:current-layer="layer1"
     showgrid="false"
     fit-margin-top="0"
     fit-margin-left="0"
     fit-margin-right="0"
     fit-margin-bottom="0"
     inkscape:window-width="1920"
     inkscape:window-height="1023"
     inkscape:window-x="0"
     inkscape:window-y="0"
     inkscape:window-maximized="1" />
  <metadata
     id="metadata7">
    <rdf:RDF>
      <cc:Work
         rdf:about="">
        <dc:format>image/svg+xml</dc:format>
        <dc:type
           rdf:resource="http://purl.org/dc/dcmitype/StillImage" />
        <dc:title></dc:title>
      </cc:Work>
    </rdf:RDF>
  </metadata>
  <g
     inkscape:label="Layer 1"
     inkscape:groupmode="layer"
     id="layer1"
     transform="translate(-280.6026,-538.10121)">
    <g
       id="g4195"
       transform="translate(197.64796,83.451366)">
      <path
         style="fill:#a6cde7"
         d="m 110.29015,612.67485 c -0.33538,-0.90683 -0.74105,-4.58597 -0.66984,-6.075 0.0318,-0.6654 0.36571,-1.66777 0.74948,-2.25 0.38065,-0.5775 0.97577,-1.69217 1.3225,-2.47704 1.15853,-2.62251 5.55916,-7.71219 7.59302,-8.78192 0.6657,-0.35014 0.80811,-0.67311 0.96698,-2.19315 0.23979,-2.2941 1.06945,-4.48554 2.69859,-7.12793 1.79699,-2.91463 4.86716,-8.54105 7.10459,-13.01996 1.03033,-2.0625 2.52456,-4.83 3.32052,-6.15 1.28541,-2.13167 1.61432,-3.07082 2.94193,-8.4 2.48303,-9.96723 3.11406,-13.24528 3.07147,-15.95532 -0.0364,-2.31496 1.15804,-10.60359 2.21843,-15.39469 0.23738,-1.0725 0.64448,-3.87211 0.90468,-6.22137 0.77617,-7.00789 1.48362,-8.84012 3.54069,-9.17004 0.69045,-0.11073 1.27122,0.054 2.11717,0.60062 l 1.16573,0.75321 -0.19174,2.44379 c -0.10545,1.34409 -0.27847,4.14936 -0.38447,6.23393 l -0.19274,3.79015 0.95967,0.85985 c 1.066,0.95513 1.50941,2.36277 1.52067,4.82744 l 0.007,1.56757 0.78918,-0.30004 c 0.43405,-0.16503 1.15103,-0.55771 1.5933,-0.87263 0.44226,-0.31492 1.16713,-0.66369 1.61081,-0.77505 0.89904,-0.22564 1.00729,-0.85278 0.51568,-2.98743 -0.40541,-1.76033 -1.26971,-12.16717 -1.07494,-12.94318 0.14841,-0.5913 -0.0223,-0.7186 -1.55868,-1.16212 -1.97901,-0.57131 -3.48289,-1.60231 -4.11212,-2.81912 -0.65231,-1.26142 -1.09463,-5.56798 -0.78909,-7.68272 0.34946,-2.41865 1.03193,-3.96378 2.34682,-5.31318 1.1207,-1.15012 2.01326,-1.54699 4.15849,-1.84907 2.35647,-0.33183 8.3605,3.18574 9.63842,5.64685 0.76615,1.4755 0.62922,4.02383 -0.30078,5.59765 -0.4306,0.72869 -1.17694,2.14616 -1.65853,3.14994 -0.49791,1.03776 -1.27986,2.11288 -1.81269,2.49229 -0.86324,0.61468 -0.90415,0.71904 -0.51929,1.32495 0.38992,0.61388 0.83583,2.42283 1.86301,7.55771 0.569,2.84448 2.3643,10.00753 3.60912,14.4 0.56112,1.98 1.37032,5.15251 1.79821,7.05001 1.01582,4.50463 4.49473,13.00992 8.04604,19.67107 1.76098,3.30304 3.66838,7.90918 4.67538,11.29053 0.4693,1.57582 0.99521,2.56434 1.93711,3.64107 0.77965,0.89126 1.37143,1.90858 1.4907,2.56266 0.42634,2.33798 6.17261,12.4603 8.8958,15.67038 0.91413,1.07757 1.90612,2.37237 2.20441,2.87734 0.29829,0.50497 0.97146,1.12276 1.49594,1.37286 0.52448,0.25011 1.85452,1.21905 2.95564,2.1532 l 2.00206,1.69846 0,1.60668 c 0,0.88367 -0.0841,1.82597 -0.187,2.09399 -0.70412,1.8349 -8.28383,2.90928 -20.09002,2.84764 -6.49474,-0.0339 -13.67198,0.46475 -22.25578,1.54628 -3.83685,0.48343 -5.73261,0.57371 -8.85,0.42149 -2.18196,-0.10654 -5.4522,-0.22668 -7.2672,-0.26695 -1.815,-0.0403 -4.8525,-0.17667 -6.75,-0.30309 -2.36711,-0.15771 -3.72832,-0.12341 -4.33669,0.10929 -1.29497,0.49532 -6.57544,1.19524 -9.06529,1.2016 -1.81397,0.005 -2.28519,0.1163 -3,0.71093 -1.49587,1.24434 -2.07067,1.39457 -5.33574,1.39457 -3.02085,0 -3.18943,-0.0332 -3.42678,-0.675 z m 73.46449,-14.57712 c 0,-0.13866 -0.68827,-1.38741 -1.52949,-2.775 -0.84122,-1.38758 -2.16092,-3.80538 -2.93267,-5.37288 -0.77175,-1.5675 -1.49808,-3.00116 -1.61406,-3.1859 -0.14541,-0.23164 -0.60861,-0.25403 -1.49232,-0.0721 -2.92669,0.60244 -10.27885,1.16516 -14.48146,1.10838 -3.37124,-0.0456 -4.95151,0.0615 -6.3,0.42666 -1.08669,0.29428 -3.76635,0.5699 -6.76197,0.69551 -4.27948,0.17945 -5.09238,0.14063 -5.9101,-0.28223 -0.52148,-0.26967 -1.38474,-0.4903 -1.91836,-0.4903 -0.53362,0 -1.76135,-0.22198 -2.72829,-0.49329 l -1.75808,-0.49329 -0.86483,0.82856 c -0.47566,0.45571 -1.13829,1.46423 -1.47252,2.24116 -0.57086,1.32701 -1.39476,5.35795 -1.14598,5.60673 0.0625,0.0625 2.39654,-0.0126 5.18685,-0.1669 5.41255,-0.29923 10.34526,-0.26316 17.80541,0.1302 4.40994,0.23252 4.69336,0.28557 5.90882,1.10587 l 1.27669,0.86163 6.39118,-0.10994 c 5.22519,-0.0899 9.51655,0.10802 13.96618,0.64409 0.20625,0.0248 0.375,-0.0683 0.375,-0.20694 z m -10.8,-21.80785 c 0,-0.088 -0.33833,-0.82763 -0.75183,-1.64365 -0.41351,-0.81601 -1.03897,-2.26277 -1.38991,-3.21502 -0.94393,-2.5613 -0.85261,-2.51808 -3.49141,-1.6524 -2.08983,0.68559 -2.8166,0.76305 -7.41685,0.79055 -4.29083,0.0257 -5.59979,-0.0792 -8.25,-0.66095 -4.08147,-0.89591 -5.53587,-1.39696 -7.26423,-2.5026 -0.77783,-0.49758 -1.53441,-0.83041 -1.68129,-0.73964 -0.14689,0.0908 -0.34923,0.9455 -0.44966,1.89937 -0.10043,0.95387 -0.4576,2.53169 -0.79371,3.50627 -0.33611,0.97458 -0.61111,1.86461 -0.61111,1.97785 0,0.11323 3.07125,0.30103 6.825,0.41734 3.75375,0.1163 8.5125,0.33368 10.575,0.48306 9.13289,0.66145 12.42333,0.96619 13.01545,1.20541 0.72802,0.29411 1.68455,0.37043 1.68455,0.13441 z M 145.7633,555.61855 c 1.36671,-1.25186 3.45933,-1.97671 9.04134,-3.13177 5.01512,-1.03776 6.77876,-1.49629 7.25468,-1.88614 0.27219,-0.22296 0.26564,-0.54756 -0.0282,-1.39567 -0.21057,-0.60782 -0.82743,-2.90521 -1.37081,-5.10532 -0.55389,-2.24266 -1.16182,-4.06691 -1.38366,-4.15204 -0.21763,-0.0835 -1.38037,0.0157 -2.58387,0.22048 -1.2035,0.20478 -3.44328,0.3857 -4.97728,0.40204 l -2.7891,0.0297 -0.86178,2.55 c -0.47399,1.4025 -1.56708,4.845 -2.42911,7.65 -0.86202,2.805 -1.62982,5.26875 -1.70621,5.475 -0.26635,0.71911 0.71626,0.36748 1.83396,-0.65629 z m 34.39461,-5.44497 c -0.7407,-0.58874 -1.4438,-1.22751 -1.56246,-1.4195 -0.33896,-0.54845 -0.62265,-3.37377 -0.40699,-4.05326 0.264,-0.8318 1.92671,-1.36519 2.99249,-0.95998 1.10071,0.41849 1.0733,0.43544 1.07662,-0.66599 0.004,-1.25722 1.12294,-3.63565 2.45947,-5.22686 0.57832,-0.68852 1.49752,-2.37602 2.04266,-3.75 0.54514,-1.37398 1.84702,-4.42512 2.89305,-6.78032 1.04604,-2.35519 1.90189,-4.42007 1.90189,-4.58863 0,-0.16856 0.33136,-0.63783 0.73636,-1.04283 0.84545,-0.84546 2.3744,-0.97387 3.29597,-0.27683 0.32029,0.24226 0.67027,0.44046 0.77774,0.44046 0.10746,0 0.35348,-1.78875 0.5467,-3.975 0.19321,-2.18625 0.51278,-5.5275 0.71014,-7.425 0.65761,-6.32262 0.52569,-7.61351 -1.68618,-16.5 -0.22588,-0.9075 -0.84481,-2.6625 -1.37541,-3.9 -0.5306,-1.2375 -1.5589,-3.93031 -2.28513,-5.98403 -0.72622,-2.05371 -1.69136,-4.26931 -2.14474,-4.92354 -0.45339,-0.65423 -2.30265,-2.55142 -4.10947,-4.21597 -5.30346,-4.88586 -8.89598,-8.38612 -9.21888,-8.98213 -0.16557,-0.30562 -0.42422,-1.42546 -0.57477,-2.48855 -0.38701,-2.73274 0.0735,-3.57326 2.1112,-3.85351 1.58796,-0.21841 2.33786,0.10999 4.24767,1.86017 l 0.78122,0.71591 0.5007,-0.76418 c 0.79978,-1.22061 2.28385,-1.05585 3.8989,0.43285 1.01648,0.93696 1.64912,1.99226 2.91195,4.85736 1.28652,2.91889 2.12239,4.302 4.1264,6.82798 1.38219,1.7422 2.90574,3.94389 3.38567,4.89264 0.49296,0.97452 1.07342,1.725 1.33419,1.725 0.58043,0 2.45465,1.25915 2.97,1.99533 0.9928,1.41822 2.13434,3.76794 3.31477,6.8231 0.70797,1.83236 2.2645,5.49157 3.45895,8.13157 2.86992,6.34319 3.58605,8.50688 3.58605,10.83485 0,1.03386 -0.11441,1.95045 -0.25424,2.03687 -0.13982,0.0864 -0.34113,1.88313 -0.44734,3.9927 -0.10845,2.15388 -0.44585,4.82209 -0.76955,6.08558 -0.92601,3.61452 -3.55354,10.97264 -4.58313,12.8346 -1.5574,2.81645 -7.23853,8.06521 -11.05648,10.21502 -1.45437,0.81893 -1.70476,1.0997 -2.01496,2.25952 -0.31095,1.16259 -0.59915,1.48423 -2.35896,2.63263 -4.00364,2.61267 -5.45507,3.21747 -7.76534,3.23577 -1.96743,0.0156 -2.18502,-0.0509 -3.44673,-1.0538 z m -58.71596,-9.63572 c -1.02447,-0.62591 -3.3706,-2.35301 -5.21362,-3.83802 -4.40711,-3.55099 -7.32456,-5.47695 -8.93209,-5.89654 -1.37065,-0.35775 -5.34887,-3.13504 -6.63884,-4.63473 -3.992269,-4.64131 -5.691897,-7.54836 -7.520479,-12.86304 -1.380227,-4.01155 -1.955082,-6.72558 -2.380864,-11.24062 -0.345673,-3.66556 -0.244939,-4.66105 0.638576,-6.31062 0.450076,-0.84032 0.560003,-1.69812 0.560003,-4.36991 0,-5.96417 0.733602,-8.54668 4.572997,-16.09841 2.051856,-4.03581 3.170501,-5.85684 4.651047,-7.57141 3.40084,-3.9384 8.3353,-6.65371 10.68336,-5.87878 0.55056,0.1817 1.20084,0.25369 1.44507,0.15997 0.24423,-0.0937 0.80044,-0.0349 1.23601,0.1307 0.65775,0.25008 0.93344,0.18247 1.62674,-0.39891 1.24356,-1.04282 2.63356,-1.25362 3.87121,-0.5871 1.11467,0.60029 1.60891,1.76599 1.61189,3.80174 0.002,1.06498 -0.28865,1.44081 -4.28564,5.55 -4.51225,4.63891 -6.60962,7.03016 -8.33918,9.50766 -1.95784,2.80451 -4.18662,6.74042 -4.37262,7.72183 -0.44523,2.34914 -1.54753,3.23867 -2.64874,2.13746 -0.27803,-0.27803 -0.59686,-0.37555 -0.73562,-0.225 -0.38367,0.41625 -1.810901,6.95427 -2.230206,10.21633 -0.403428,3.13854 -0.241069,4.21379 1.313626,8.69972 1.22564,3.53646 9.64627,15.18339 11.87518,16.42506 0.52558,0.29279 1.20095,1.08312 1.56381,1.82998 0.3568,0.7344 2.40056,3.14184 4.63062,5.45462 5.67155,5.88193 6.89232,7.39742 6.7757,8.41157 -0.15048,1.30876 -1.47418,1.26171 -3.75794,-0.13355 z m 62.28237,-15.78474 c -0.33274,-0.73029 -0.13801,-2.23375 0.50701,-3.91465 0.15064,-0.39258 -0.0134,-0.48863 -0.8346,-0.48863 -0.56215,0 -1.18409,-0.162 -1.38209,-0.36 -0.61589,-0.61588 -0.39771,-3.04611 0.52478,-5.84541 1.51151,-4.58667 1.66078,-8.24545 0.58521,-14.34459 -0.56849,-3.22373 -4.27675,-11.05989 -7.3113,-15.45 -0.8554,-1.2375 -2.12074,-3.22233 -2.81187,-4.41072 -0.69114,-1.1884 -1.74498,-2.62148 -2.34188,-3.18461 -0.89783,-0.84706 -1.11024,-1.2839 -1.22992,-2.52945 -0.25967,-2.70239 1.39778,-3.44369 4.71918,-2.11068 3.51861,1.41216 4.83875,2.73189 6.98762,6.98546 0.5835,1.155 1.48038,2.49804 1.99308,2.98452 3.7344,3.54348 7.29405,14.07561 6.79534,20.10568 -0.10962,1.32539 -0.18544,5.4473 -0.16849,9.1598 0.0242,5.3116 -0.0713,7.13126 -0.44835,8.53911 -0.8886,3.31779 -2.2444,5.04659 -4.26864,5.44298 -0.83407,0.16333 -1.01277,0.0847 -1.31508,-0.57881 z m -51.92611,-5.55557 c -1.62219,-0.82704 -5.83676,-4.77605 -7.05463,-6.61011 -0.58887,-0.88683 -1.48314,-1.83183 -1.98727,-2.1 -1.41847,-0.75458 -3.77159,-3.02942 -4.60539,-4.45219 -0.41426,-0.70688 -0.95186,-2.06153 -1.19466,-3.01032 -0.24281,-0.9488 -0.77882,-2.80509 -1.19114,-4.12509 -2.035,-6.51491 -1.21486,-12.6399 2.75396,-20.5672 2.24588,-4.4859 6.24035,-6.27584 9.45182,-4.2354 3.5127,2.23183 4.16426,4.43567 2.19034,7.4086 -1.06498,1.60398 -1.08879,1.70171 -0.91618,3.76065 0.13352,1.59253 0.0301,2.68351 -0.41918,4.42361 -0.44525,1.72436 -0.61222,3.45617 -0.65882,6.83321 l -0.0624,4.52346 2.7474,5.37654 c 1.51107,2.95709 2.97628,6.25403 3.25602,7.32653 0.61386,2.35341 0.4485,5.03728 -0.34614,5.61833 -0.66592,0.48694 -0.6756,0.48609 -1.96371,-0.17062 z m 39.10407,-6.91191 c -0.22129,-0.14026 -0.58962,-1.33415 -0.8185,-2.6531 -0.69406,-3.99952 -2.06784,-7.39172 -4.46805,-11.0327 -1.19649,-1.815 -2.31641,-3.57003 -2.48873,-3.90008 -0.1723,-0.33004 -0.48361,-2.19426 -0.69179,-4.1427 -0.35977,-3.36721 -0.35009,-3.57034 0.19546,-4.10249 0.31568,-0.30794 1.18147,-0.64322 1.92397,-0.74509 1.29297,-0.17738 1.48939,-0.0939 4.65,1.97556 4.30891,2.82138 5.0867,3.50715 7.80624,6.88266 2.62854,3.26256 4.76186,6.97455 5.24193,9.121 0.37856,1.69261 0.15828,3.56184 -0.49698,4.21709 -0.65402,0.65402 -2.57675,0.55695 -3.51008,-0.1772 l -0.7898,-0.62126 -0.31755,0.84626 c -0.17465,0.46544 -0.64744,1.15547 -1.05065,1.53339 -0.40321,0.37793 -0.73311,0.87731 -0.73311,1.10974 0,0.23242 -0.4515,0.76696 -1.00332,1.18786 -1.01607,0.77499 -2.64375,1.01146 -3.44904,0.50106 z m -35.07435,-5.60836 c -2.30376,-2.11984 -2.51514,-2.4172 -3.1455,-4.425 -0.79005,-2.51644 -0.88451,-6.53009 -0.30482,-12.95244 0.51428,-5.69772 1.26825,-8.03197 3.08927,-9.56426 1.1069,-0.9314 1.80813,-0.99196 2.50968,-0.21676 0.3988,0.44067 0.78149,0.53323 1.69696,0.41044 0.94405,-0.12662 1.42354,10e-4 2.38157,0.63528 1.02247,0.67663 1.19955,0.94995 1.19955,1.85151 0,0.58173 0.27959,1.60575 0.62132,2.27559 1.01047,1.98069 0.33895,4.19262 -1.36788,4.50568 -0.3281,0.0602 -0.64638,0.37786 -0.70728,0.70597 -0.18118,0.97613 -0.65993,1.34655 -1.74032,1.34655 -0.81961,0 -1.07834,0.15161 -1.31327,0.76953 -0.6408,1.68543 0.057,6.37063 1.67901,11.2728 1.39242,4.20836 1.12682,5.65767 -1.0368,5.65767 -0.94224,0 -1.42999,-0.31123 -3.56149,-2.27256 z"
         id="path4209"
         inkscape:connector-curvature="0" />
      <path
         style="fill:#85bbdf"
         d="m 110.58513,612.38005 c -0.15114,-0.39751 -0.36783,-2.06317 -0.48155,-3.70147 -0.19525,-2.81284 -0.16727,-3.03721 0.50239,-4.02873 0.39004,-0.5775 1.13823,-1.9275 1.66266,-3 1.22233,-2.49978 3.78239,-5.5941 6.2003,-7.49426 1.8248,-1.43406 1.90715,-1.55653 2.06726,-3.07465 0.25327,-2.40134 0.99196,-4.24831 3.21205,-8.03109 2.77721,-4.73207 5.4064,-9.44653 5.4064,-9.69433 0,-0.20869 3.76689,-7.3376 5.18128,-9.80567 1.50183,-2.62067 5.36846,-19.06412 5.36135,-22.8 -0.005,-2.67782 0.87832,-9.24634 1.91653,-14.25001 0.41083,-1.98 0.94153,-5.355 1.17935,-7.5 0.70667,-6.37397 1.28937,-8.52789 2.42493,-8.96364 0.98672,-0.37864 2.22554,-0.16705 3.01927,0.51569 l 0.81618,0.70204 -0.35161,3.87296 c -0.19339,2.13012 -0.35064,4.91001 -0.34945,6.17753 0.002,2.20301 0.0408,2.33205 0.878,2.92821 0.97841,0.6967 1.52417,2.53428 1.52417,5.13198 0,0.92222 0.13122,1.48523 0.34617,1.48523 0.19039,0 1.19107,-0.4725 2.22374,-1.05 1.03267,-0.5775 2.08064,-1.05 2.32883,-1.05 0.67501,0 0.72748,-0.50068 0.29317,-2.79756 -0.51123,-2.7037 -1.32671,-12.75675 -1.10382,-13.60783 0.149,-0.56899 -3e-4,-0.69938 -1.13323,-0.98904 -3.87144,-0.98987 -4.81918,-2.05878 -5.3248,-6.00557 -0.66607,-5.19912 0.72886,-9.18358 3.68511,-10.52606 1.92504,-0.8742 4.05229,-0.75001 6.26838,0.36595 4.37026,2.20072 5.94075,3.93285 5.9919,6.60859 0.0295,1.54413 -0.68398,3.51233 -1.72248,4.75152 -0.20742,0.2475 -0.53894,0.95408 -0.73672,1.57018 -0.20398,0.6354 -0.86954,1.55666 -1.53793,2.12878 -1.30313,1.11543 -1.3696,1.28926 -0.75607,1.97742 0.23224,0.26049 0.63019,1.48612 0.88434,2.72362 1.75648,8.55262 2.26953,10.71826 4.47747,18.9 0.7347,2.7225 1.64313,6.23251 2.01874,7.80001 0.96049,4.0083 5.29834,14.48547 7.94936,19.2 1.38038,2.45486 4.05333,9.01756 4.80527,11.79807 0.32944,1.21819 0.83743,2.1437 1.67584,3.05327 0.6617,0.71787 1.34441,1.82124 1.51714,2.45193 0.80174,2.92755 6.2264,12.59691 8.62271,15.36984 0.79703,0.92229 1.81201,2.21689 2.25552,2.87689 0.44351,0.66 1.59952,1.74 2.56892,2.4 0.9694,0.66 2.31152,1.71169 2.98249,2.33709 1.13037,1.0536 1.21995,1.25394 1.21995,2.72851 0,1.93166 -0.49704,2.48578 -2.77105,3.08928 -2.68018,0.71129 -10.56029,1.29261 -17.53946,1.2939 -6.85591,10e-4 -13.26167,0.44597 -22.11653,1.53541 -4.00653,0.49293 -5.87258,0.58106 -8.85,0.41794 -10.94183,-0.59943 -17.59134,-0.61474 -20.42296,-0.047 -1.4025,0.2812 -4.13816,0.61916 -6.07925,0.75101 -3.34095,0.22694 -3.57804,0.28653 -4.4439,1.1168 -0.87955,0.8434 -1.04048,0.88095 -4.19311,0.97853 -3.22954,0.1 -3.28257,0.0907 -3.55325,-0.62127 z m 73.60985,-14.01458 c 0.0967,-0.1564 -0.45395,-1.26677 -1.22358,-2.46748 -0.76964,-1.20071 -2.198,-3.80649 -3.17412,-5.79063 -0.97614,-1.98413 -1.86982,-3.70303 -1.98597,-3.81977 -0.11616,-0.11675 -1.15518,-0.0272 -2.30893,0.19908 -3.15242,0.61816 -10.00745,1.10488 -14.39774,1.02225 -2.86241,-0.0539 -4.3789,0.0568 -5.7,0.416 -2.54701,0.6925 -11.47147,1.05279 -12.46887,0.50339 -0.40212,-0.22151 -1.47363,-0.48917 -2.38113,-0.59481 -0.9075,-0.10563 -2.28755,-0.37467 -3.06678,-0.59787 -1.34605,-0.38557 -1.45311,-0.37169 -2.14474,0.27807 -0.40038,0.37614 -1.09171,1.49441 -1.53628,2.48504 -0.8439,1.88047 -1.57322,5.85873 -1.14821,6.26324 0.1353,0.12878 0.98851,0.10528 1.89601,-0.0522 2.1022,-0.36484 13.23424,-0.43519 20.25,-0.12798 5.26685,0.23063 5.43282,0.25789 6.73141,1.10557 l 1.33142,0.8691 7.96858,0.007 c 4.38272,0.004 8.91359,0.11827 10.06859,0.25411 3.04715,0.35837 3.09793,0.3591 3.29034,0.0478 z m -55.94034,-1.06562 c 0,-0.2475 -0.2025,-0.45 -0.45,-0.45 -0.2475,0 -0.45,0.2025 -0.45,0.45 0,0.2475 0.2025,0.45 0.45,0.45 0.2475,0 0.45,-0.2025 0.45,-0.45 z m 45,-20.60234 c 0,-0.42115 -2.97884,-7.48586 -3.31193,-7.85469 -0.12766,-0.14136 -0.98378,0.0242 -1.90249,0.36795 -5.92518,2.21689 -18.42267,1.08709 -23.66695,-2.13955 -1.76708,-1.08723 -2.31863,-0.93602 -2.31863,0.63565 0,0.64672 -0.3375,2.3405 -0.75,3.76395 -0.4125,1.42345 -0.75,2.69976 -0.75,2.83623 0,0.13648 2.66625,0.34117 5.925,0.45488 10.82915,0.37786 23.36475,1.29525 25.07739,1.83523 1.62388,0.512 1.69761,0.51636 1.69761,0.10035 z m -27.3,-20.80461 c 1.2748,-1.179 3.61145,-1.97533 9.19353,-3.13315 5.24873,-1.08868 7.47309,-1.81251 7.40572,-2.4099 -0.0928,-0.82296 -2.55487,-10.04219 -2.80864,-10.51696 -0.22383,-0.41875 -0.50727,-0.4223 -2.74511,-0.0344 -1.37253,0.23792 -3.73231,0.44805 -5.24395,0.46696 -1.51164,0.0189 -2.84774,0.13297 -2.9691,0.25348 -0.27837,0.2764 -1.04734,2.46134 -2.35131,6.6809 -3.1414,10.16545 -3.15497,10.2307 -2.04654,9.84397 0.28347,-0.0989 0.9879,-0.61681 1.5654,-1.15092 z m 34.42305,-6.01463 c -1.56067,-1.2159 -1.65455,-1.39012 -1.90713,-3.53925 -0.13986,-1.18995 -0.0764,-1.64849 0.26757,-1.93397 0.51124,-0.4243 1.77248,-0.50684 2.99151,-0.19578 0.78776,0.20102 0.825,0.1611 0.825,-0.88443 0,-1.25188 1.06122,-3.50457 2.6897,-5.7095 0.61561,-0.83352 1.57065,-2.663 2.1223,-4.0655 1.8072,-4.59453 5.07497,-11.8064 5.4605,-12.05115 0.68018,-0.43182 2.06797,-0.26056 2.84563,0.35115 0.41953,0.33 0.86352,0.6 0.98665,0.6 0.12312,0 0.31476,-1.31625 0.42586,-2.925 0.1111,-1.60875 0.32275,-4.005 0.47035,-5.325 1.07918,-9.65134 1.07908,-9.51013 0.0104,-14.56294 -1.17835,-5.57143 -1.47303,-6.62675 -2.71882,-9.73706 -0.52871,-1.32 -1.53607,-3.99375 -2.23856,-5.94168 -0.7025,-1.94792 -1.77371,-4.26248 -2.38046,-5.14346 -1.13952,-1.65453 -1.84628,-2.35047 -8.51917,-8.38879 -2.17224,-1.96567 -4.17525,-3.91845 -4.45115,-4.33953 -0.62559,-0.95476 -0.93952,-4.94038 -0.43684,-5.54606 0.1897,-0.22858 0.88786,-0.50243 1.55146,-0.60854 0.97635,-0.15612 1.45686,-0.0462 2.51864,0.57602 0.72166,0.42292 1.52928,1.10039 1.79472,1.50549 0.62723,0.95728 1.36877,0.96094 1.36877,0.007 0,-0.82056 0.82446,-1.22952 1.92291,-0.95383 1.49113,0.37425 2.35364,1.5043 4.35467,5.70542 1.49327,3.13508 2.5761,4.92622 4.1884,6.92819 1.19596,1.485 2.63957,3.61125 3.20802,4.725 0.68309,1.33836 1.2121,2.025 1.56013,2.025 0.99354,0 2.73986,1.50467 3.74498,3.22675 0.55319,0.94779 1.56695,3.14075 2.2528,4.87325 0.68586,1.7325 2.24393,5.3775 3.4624,8.1 3.18009,7.10552 3.90928,9.39846 3.68561,11.58941 -0.0988,0.96833 -0.30921,3.38059 -0.46746,5.36059 -0.34017,4.25631 -1.01871,7.30276 -2.80641,12.6 -2.0561,6.09254 -3.09996,7.87557 -6.52115,11.13883 -2.6422,2.52023 -5.53414,4.74 -7.30503,5.60712 -1.43616,0.70322 -1.61518,0.90137 -1.85951,2.05821 -0.2326,1.10131 -0.52174,1.45886 -2.07036,2.56026 -3.16526,2.25117 -5.79604,3.38559 -7.85142,3.38559 -1.60746,0 -1.94731,-0.11469 -3.17552,-1.07158 z m -58.42305,-9.35877 c -1.41326,-0.80643 -5.67415,-3.99482 -7.53843,-5.64095 -1.87955,-1.65961 -5.5086,-3.96439 -6.78225,-4.30735 -2.77455,-0.7471 -6.69846,-4.16697 -9.834672,-8.57136 -2.121818,-2.9798 -2.775786,-4.27102 -4.178407,-8.25 -1.675916,-4.75426 -2.266204,-7.74025 -2.470098,-12.4951 -0.171037,-3.98862 -0.143189,-4.30796 0.460909,-5.28541 0.548662,-0.88776 0.643276,-1.49703 0.64521,-4.1549 0.0041,-5.59382 0.953265,-9.34357 3.826036,-15.11459 4.141332,-8.31937 6.493622,-11.1054 11.552642,-13.68278 0.99989,-0.50941 2.20356,-0.88168 2.85,-0.88143 1.48881,5.7e-4 3.45646,0.2063 4.18527,0.43762 0.37143,0.11789 0.88614,-0.0462 1.39137,-0.44364 0.44102,-0.34691 1.27744,-0.76206 1.85873,-0.92256 0.87984,-0.24293 1.2281,-0.18599 2.07906,0.33993 0.83567,0.51648 1.05863,0.87475 1.2219,1.96346 0.10983,0.73245 0.11169,1.68236 0.004,2.11093 -0.11024,0.43921 -1.96027,2.54903 -4.23982,4.83518 -3.98827,3.99981 -6.64459,7.05102 -8.43877,9.69329 -1.99173,2.93318 -3.97817,6.57612 -4.31476,7.91283 -0.39234,1.55812 -1.22375,2.2717 -1.94724,1.67126 -0.23695,-0.19666 -0.43082,-0.55477 -0.43082,-0.79582 0,-0.89933 -0.75077,-0.1456 -1.13008,1.13454 -1.099179,3.70959 -2.167159,9.62044 -2.168782,12.00335 -0.0014,1.98399 1.340705,6.68935 2.499822,8.76458 2.95913,5.29789 8.96808,13.11457 11.06271,14.39083 0.47984,0.29237 1.05788,0.96737 1.28455,1.5 0.41514,0.97553 4.89154,6.06274 6.33141,7.19534 0.42623,0.33527 1.77518,1.81804 2.99767,3.29505 2.45506,2.96619 2.85922,4.1512 1.3977,4.09804 -0.45375,-0.0165 -1.4325,-0.37666 -2.175,-0.80034 z m 62.1095,-15.9519 c -0.26121,-0.48808 -0.23204,-1.05555 0.12615,-2.45369 0.25627,-1.00033 0.40131,-1.92336 0.3223,-2.05119 -0.079,-0.12782 -0.48513,-0.16713 -0.90252,-0.0873 -1.89696,0.36263 -2.13135,-1.53495 -0.72808,-5.89451 1.18383,-3.67784 1.43077,-6.30117 0.99473,-10.56729 -0.49529,-4.84589 -0.61964,-5.3285 -2.40685,-9.34181 -2.04661,-4.5958 -3.28226,-6.84629 -5.8046,-10.57193 -1.11709,-1.65 -2.37983,-3.69116 -2.8061,-4.53592 -0.42627,-0.84476 -1.18671,-1.88233 -1.68988,-2.30571 -1.52927,-1.2868 -2.01628,-3.56141 -0.96603,-4.51187 0.84299,-0.7629 2.25693,-0.59687 4.67042,0.54843 2.63203,1.24901 3.81462,2.47534 5.67836,5.88841 0.75584,1.38416 2.06419,3.32666 2.90745,4.31666 3.68977,4.33187 6.68827,13.88163 6.16745,19.64242 -0.11226,1.24167 -0.2307,5.56508 -0.2632,9.60758 -0.0551,6.84975 -0.105,7.46336 -0.73338,9.01545 -1.14823,2.83612 -3.79233,4.74834 -4.56622,3.30231 z m -52.75536,-6.01985 c -1.07483,-0.66318 -5.65675,-5.21113 -7.07284,-7.0204 -0.47778,-0.61044 -1.35528,-1.36078 -1.95,-1.66741 -2.60044,-1.34078 -4.05439,-3.69063 -5.76056,-9.3101 -1.31707,-4.3379 -1.32068,-4.36251 -1.29878,-8.85 0.0201,-4.11639 0.0932,-4.70459 0.85735,-6.9 0.45947,-1.32 1.49066,-3.77048 2.29155,-5.4455 1.98504,-4.15161 4.01359,-5.8045 7.12374,-5.8045 1.29602,0 3.40645,1.24933 4.55048,2.6938 1.26722,1.59999 1.22736,2.98541 -0.14451,5.02251 -1.07008,1.58898 -1.13066,1.92902 -0.97702,5.48369 0.025,0.5775 -0.19274,2.13 -0.48377,3.45 -0.34362,1.55851 -0.54854,3.88922 -0.58446,6.64738 l -0.0553,4.24739 2.76625,5.50262 c 3.17305,6.3118 3.94566,8.71377 3.51711,10.93436 -0.24206,1.25423 -0.39269,1.48009 -1.03336,1.54943 -0.4125,0.0447 -1.19814,-0.19532 -1.74586,-0.53327 z m 39.62728,-6.67291 c -0.16063,-0.20625 -0.44757,-1.34846 -0.63764,-2.53824 -0.7103,-4.44624 -3.0272,-9.55809 -5.91667,-13.05414 -0.90901,-1.09984 -1.23263,-2.23746 -1.63692,-5.75429 -0.4242,-3.68994 -0.22236,-4.22383 1.69624,-4.48681 1.23685,-0.16953 1.5067,-0.0648 4.09385,1.58868 4.21945,2.69673 5.50758,3.79151 7.98836,6.78931 4.64165,5.60903 6.74017,11.11378 5.05326,13.25549 -0.47709,0.60571 -2.45096,0.46114 -3.0719,-0.225 -0.75041,-0.82919 -1.23874,-0.75081 -1.5894,0.25511 -0.16395,0.47031 -0.64966,1.20668 -1.07935,1.63637 -0.42969,0.42969 -0.78125,0.98069 -0.78125,1.22446 0,1.1854 -3.37858,2.25926 -4.11858,1.30906 z m -33.33194,-4.02542 c -1.84377,-1.52746 -3.62981,-3.39149 -4.04186,-4.21835 -1.31305,-2.63488 -1.57022,-6.78069 -0.889,-14.33123 0.44034,-4.88065 1.2382,-7.58682 2.65435,-9.00297 1.19033,-1.19033 1.89667,-1.30932 2.67395,-0.45043 0.42825,0.47321 0.77395,0.55918 1.67149,0.41566 1.57878,-0.25246 3.15787,0.93189 3.36688,2.52522 0.0803,0.61189 0.38219,1.72002 0.67094,2.46252 0.48487,1.24683 0.48867,1.43598 0.0497,2.475 -0.37055,0.87705 -0.64209,1.125 -1.23204,1.125 -0.60221,0 -0.80803,0.19909 -1.00796,0.975 -0.21927,0.85098 -0.40069,0.99408 -1.42623,1.125 -1.35475,0.17295 -1.92814,0.98349 -1.93527,2.73571 -0.008,1.91064 0.88835,6.31736 1.96159,9.64612 1.03134,3.1988 1.11447,4.5512 0.31279,5.08858 -0.6732,0.45126 -1.89252,0.20525 -2.82932,-0.57083 z"
         id="path4207"
         inkscape:connector-curvature="0" />
      <path
         style="fill:#5ba4d4"
         d="m 111.14379,612.74314 c -0.35957,-0.22222 -0.871,-3.3265 -0.88855,-5.39329 -0.0255,-3.00008 4.53185,-10.09503 8.42769,-13.12042 0.98313,-0.76348 1.83736,-1.66747 1.89828,-2.00886 0.89329,-5.00649 0.83607,-4.85936 3.83789,-9.86715 1.00672,-1.67946 3.40836,-6.09107 5.33698,-9.80357 1.92862,-3.7125 3.95372,-7.54712 4.50021,-8.52137 0.9616,-1.71425 2.98029,-8.64111 4.0738,-13.97863 0.25353,-1.2375 0.72277,-3.41421 1.04276,-4.83714 0.33232,-1.4778 0.58179,-3.70367 0.58179,-5.19107 0,-2.45718 0.97911,-9.49547 1.93632,-13.9191 0.23834,-1.10148 0.58251,-3.2852 0.76482,-4.8527 0.61845,-5.31742 1.2412,-8.84665 1.74583,-9.89385 0.67145,-1.39336 2.16384,-1.75292 3.45619,-0.83269 l 0.87591,0.62371 -0.18893,2.42642 c -0.1039,1.33452 -0.27671,4.0695 -0.384,6.0777 l -0.19509,3.6513 0.94912,0.86688 c 1.13651,1.03805 1.53983,2.29157 1.53983,4.78585 0,1.0226 0.12351,1.93561 0.27448,2.02892 0.15097,0.0933 1.14633,-0.2848 2.21191,-0.84022 1.06558,-0.55542 2.29207,-1.09886 2.72551,-1.20765 0.88364,-0.22178 0.99053,-0.89616 0.48739,-3.07515 -0.40698,-1.76255 -1.25704,-11.40667 -1.14402,-12.97913 l 0.0947,-1.31792 -1.80323,-0.49504 c -3.7858,-1.03931 -4.78314,-2.6668 -4.7916,-7.81913 -0.004,-2.69462 0.10325,-3.4062 0.74483,-4.92224 0.98196,-2.32036 2.29809,-3.3841 4.71345,-3.80956 l 1.8318,-0.32267 3.02927,1.55603 c 3.23825,1.66338 4.6163,2.95237 5.12997,4.79844 0.46383,1.66696 0.35431,2.48145 -0.56762,4.22121 -0.47472,0.89584 -1.27583,2.43879 -1.78025,3.42879 -0.5612,1.10144 -1.27408,2.01033 -1.83688,2.34197 -1.00336,0.59123 -1.15956,1.13554 -0.48623,1.69435 0.23844,0.19789 0.5774,1.12567 0.75326,2.06174 0.17586,0.93607 0.45729,2.12762 0.62539,2.64788 0.16811,0.52027 0.50401,2.00527 0.74645,3.3 0.5856,3.12742 1.64528,7.48757 2.97818,12.25406 0.59983,2.145 1.56709,5.79001 2.14946,8.10001 1.25714,4.98641 3.94076,11.76526 7.60094,19.2 2.77987,5.64661 4.59755,9.98803 5.3217,12.71053 0.29142,1.09562 0.90198,2.17963 1.90974,3.39058 0.89355,1.0737 1.48137,2.07363 1.48137,2.51991 0,1.63931 5.51087,11.49323 8.37709,14.97898 0.94972,1.155 2.10968,2.68258 2.57769,3.39463 0.46801,0.71204 1.26589,1.50621 1.77307,1.76482 0.50718,0.25861 1.7659,1.15085 2.79715,1.98276 1.50598,1.21487 1.88581,1.69413 1.92995,2.43517 0.15278,2.56488 -0.26914,3.22756 -2.39843,3.76707 -2.65901,0.67372 -9.51673,1.1878 -15.96337,1.19667 -7.35317,0.0101 -15.08426,0.56106 -25.54091,1.82014 -1.7254,0.20776 -4.57764,0.27786 -7.05,0.17328 -10.48923,-0.44372 -17.64672,-0.45933 -19.75224,-0.0431 -1.155,0.22833 -3.9225,0.56772 -6.15,0.75421 -3.2089,0.26866 -4.20576,0.46063 -4.8,0.92438 -0.4125,0.32191 -1.02,0.70158 -1.35,0.84371 -0.7619,0.32812 -5.73292,0.59404 -6.16085,0.32956 z m 73.51085,-14.38297 c 0,-0.15932 -0.74901,-1.43875 -1.66446,-2.84318 -0.91545,-1.40442 -2.42,-4.12474 -3.34344,-6.04514 l -1.67897,-3.49165 -1.23157,0.18281 c -0.67736,0.10054 -2.17656,0.32698 -3.33156,0.50319 -1.155,0.17621 -5.5425,0.42943 -9.75,0.56272 -4.23193,0.13406 -8.01495,0.38923 -8.4668,0.57109 -0.44924,0.18081 -3.11888,0.47322 -5.93253,0.6498 -4.30735,0.27031 -5.26861,0.25276 -6.0832,-0.1111 -0.53211,-0.23767 -1.69446,-0.5082 -2.583,-0.60117 -0.88854,-0.093 -2.20208,-0.39303 -2.91897,-0.66681 -1.19012,-0.45451 -1.36619,-0.45668 -2.0251,-0.0249 -1.5256,0.99961 -3.07631,4.81832 -3.25029,8.00405 -0.0686,1.25669 0.006,1.62991 0.31276,1.56571 0.22158,-0.0464 2.51658,-0.21399 5.1,-0.37251 7.45719,-0.45759 22.26678,0.029 23.14713,0.76052 1.49346,1.24101 2.13434,1.33294 8.29268,1.18962 3.27652,-0.0763 7.17232,-0.0235 8.65732,0.11718 3.86282,0.366 6.75,0.38731 6.75,0.0498 z m -56.25,-1.06032 c 0,-0.32548 -0.21927,-0.63401 -0.48726,-0.68562 -0.51994,-0.10013 -0.98364,0.6973 -0.68575,1.1793 0.3057,0.49462 1.17301,0.1296 1.17301,-0.49368 z m 45.15,-20.36212 c 0,-0.22666 -0.54832,-1.67791 -1.21849,-3.225 -0.67017,-1.54709 -1.43318,-3.31913 -1.69556,-3.93788 -0.55566,-1.31032 -0.76971,-1.33977 -3.38595,-0.46601 -1.70894,0.57075 -2.6361,0.65368 -7.5,0.67086 -5.03949,0.0178 -5.86735,-0.0556 -9,-0.79839 -2.03005,-0.48133 -4.28949,-1.25293 -5.48968,-1.87473 -2.99649,-1.55244 -3.5119,-1.40662 -3.50899,0.9928 6e-4,0.60526 -0.35689,2.22756 -0.79473,3.60512 -0.86887,2.73373 -0.73366,3.23499 0.77636,2.87807 0.68157,-0.1611 5.71318,0.0751 16.66704,0.78225 8.7132,0.56254 12.01747,0.88507 13.35206,1.3033 1.75907,0.55125 1.79794,0.55275 1.79794,0.0696 z m -27.63439,-20.74251 c 1.44857,-1.3087 3.49113,-2.03302 8.93148,-3.16723 2.3359,-0.487 5.0359,-1.12836 6,-1.42525 1.71847,-0.5292 1.75157,-0.56007 1.68481,-1.57135 -0.0375,-0.56735 -0.64683,-3.19154 -1.35417,-5.83154 l -1.28607,-4.8 -1.84016,0.0842 c -1.01209,0.0463 -2.76139,0.27699 -3.88733,0.51257 -1.55132,0.32458 -2.35187,0.3516 -3.30515,0.11156 -0.82622,-0.20804 -1.43739,-0.21636 -1.7807,-0.0242 -0.56482,0.31609 -1.43348,2.4691 -2.81048,6.96586 -0.48,1.5675 -1.35538,4.42527 -1.94528,6.35061 -0.58991,1.92534 -1.07256,3.57909 -1.07256,3.675 0,0.0959 0.33711,0.17439 0.74913,0.17439 0.43541,0 1.23801,-0.44167 1.91648,-1.05463 z m 34.25667,-6.71091 c -1.25354,-1.08351 -1.33513,-1.25009 -1.46036,-2.98137 -0.12669,-1.75153 -0.0968,-1.85008 0.66754,-2.19832 0.63426,-0.28899 1.0225,-0.2842 1.87238,0.0231 1.21685,0.44002 1.59888,0.16116 1.37607,-1.00442 -0.15879,-0.83066 1.05663,-3.31517 2.66187,-5.4413 0.64315,-0.85185 1.82245,-3.15383 2.62066,-5.1155 0.79822,-1.96168 2.17163,-5.22317 3.05203,-7.24777 1.44118,-3.31418 1.69227,-3.70607 2.51913,-3.9317 1.19034,-0.32481 2.43936,0.36102 2.86119,1.57106 0.17045,0.48896 0.39157,0.80736 0.49137,0.70756 0.0998,-0.0998 0.2971,-1.97795 0.43843,-4.17365 0.14133,-2.1957 0.46126,-5.88218 0.71095,-8.19218 0.53641,-4.96248 0.58647,-8.55573 0.14152,-10.15817 -0.17687,-0.637 -0.70129,-2.8645 -1.16538,-4.95 -0.46409,-2.08551 -1.27631,-4.87184 -1.80494,-6.19184 -0.52862,-1.32 -1.48778,-3.85668 -2.13147,-5.63706 -1.93467,-5.35113 -2.97312,-6.93165 -6.68627,-10.17649 -4.63988,-4.0547 -8.6482,-7.88971 -9.02671,-8.63645 -0.2091,-0.4125 -0.46898,-1.56347 -0.57752,-2.5577 -0.24374,-2.23271 0.12559,-2.85267 1.81574,-3.0479 1.32649,-0.15323 2.89024,0.67474 4.04359,2.14099 0.79706,1.0133 1.34261,0.96604 1.5629,-0.13539 0.15874,-0.79371 0.30366,-0.9 1.22706,-0.9 1.66457,0 2.86423,1.29969 4.35149,4.71433 1.70151,3.90654 2.27768,4.86887 4.81525,8.04246 1.18441,1.48127 2.61591,3.60446 3.18111,4.71821 0.77289,1.52303 1.18254,2.025 1.65255,2.025 1.69332,0 3.60601,2.61428 5.62437,7.68747 0.66465,1.67061 1.60756,3.89811 2.09535,4.95 4.78532,10.31928 6.0027,14.23834 5.02908,16.18999 -0.33901,0.67957 -0.48126,1.79725 -0.48126,3.78128 0,3.25875 -0.55937,6.38439 -1.78805,9.99126 -0.47776,1.4025 -1.14414,3.495 -1.48085,4.65 -0.90101,3.09065 -2.9517,6.35564 -5.58645,8.89443 -2.65329,2.55664 -6.05693,5.175 -7.87572,6.05864 -0.88843,0.43163 -1.33996,0.86342 -1.45028,1.38686 -0.42146,1.99988 -1.54189,3.00558 -5.93646,5.32859 -1.56238,0.82589 -2.14145,0.96815 -3.93219,0.96605 -2.00113,-0.002 -2.16252,-0.0565 -3.42772,-1.1501 z m -57.89654,-9.04062 c -1.77452,-0.97812 -5.23392,-3.49524 -7.82574,-5.69416 -2.54634,-2.16032 -5.27902,-3.89609 -6.88421,-4.37279 -1.85083,-0.54963 -4.43464,-2.45581 -6.86939,-5.06781 -5.525678,-5.92795 -8.814011,-14.34551 -9.506946,-24.33614 -0.190635,-2.74854 -0.148491,-3.16258 0.45805,-4.5 0.549746,-1.21219 0.710246,-2.29614 0.906625,-6.12295 0.192348,-3.74825 0.392381,-5.1307 1.031498,-7.1288 1.641469,-5.1318 5.337963,-12.20866 7.962343,-15.24374 3.01737,-3.48957 7.58548,-6.11218 9.90203,-5.68489 2.96061,0.5461 4.13866,0.48097 5.27734,-0.29176 1.2884,-0.87433 2.41181,-0.94864 3.31292,-0.21914 0.79202,0.64118 1.42961,2.54987 1.18172,3.53756 -0.10179,0.40555 -2.24264,2.86213 -4.75745,5.45907 -2.51482,2.59693 -5.11984,5.3967 -5.78894,6.2217 -2.60875,3.21658 -6.24663,9.13863 -6.58667,10.72238 -0.46619,2.17123 -1.42925,2.71863 -1.98388,1.12762 -0.58801,-1.68678 -1.03499,-0.9895 -2.02676,3.1617 -0.353246,1.47856 -0.766138,3.1608 -0.917536,3.7383 -0.151398,0.5775 -0.443807,2.42504 -0.649798,4.10563 l -0.37453,3.05563 0.988059,3.24262 c 1.130585,3.71034 1.563195,4.62908 3.851545,8.17941 3.23324,5.01629 7.21504,9.87759 9.18006,11.20773 0.43959,0.29756 0.98289,0.98053 1.20734,1.51772 0.22445,0.53718 2.282,2.92622 4.57233,5.30898 3.78157,3.93417 6.21668,6.68499 6.83436,7.72043 0.218,0.36544 -0.27194,1.26825 -0.68185,1.25642 -0.10354,-0.003 -0.91918,-0.40832 -1.81252,-0.90072 z m 61.87061,-16.07546 c -0.16313,-0.4251 0.0794,-1.82855 0.68146,-3.94339 0.17943,-0.63027 0.1004,-0.675 -1.19282,-0.675 l -1.38499,0 0,-1.54397 c 0,-0.89731 0.38382,-2.74218 0.9164,-4.4048 1.16711,-3.64347 1.34921,-5.69278 0.90011,-10.12956 -0.50689,-5.00767 -0.71296,-5.79348 -2.62482,-10.00923 -1.9959,-4.40106 -2.94459,-6.1215 -5.38325,-9.76244 -0.99463,-1.485 -2.29893,-3.58242 -2.89843,-4.66094 -0.59951,-1.07852 -1.56701,-2.38325 -2.15001,-2.8994 -0.91481,-0.80991 -1.06,-1.12185 -1.06,-2.27733 0,-2.1955 1.12533,-2.57581 4.2,-1.41941 2.45686,0.92405 4.53608,2.938 6.07076,5.88021 0.60909,1.16771 1.80104,2.99022 2.64878,4.05 1.90976,2.38745 2.70026,3.7234 3.89681,6.5857 2.40525,5.75369 2.61689,7.39655 2.54952,19.79117 l -0.0563,10.35 -1.07449,2.30162 c -0.79199,1.6965 -1.31516,2.42607 -1.98991,2.775 -1.1664,0.60317 -1.81525,0.60056 -2.04887,-0.008 z m -52.91262,-6.08365 c -1.77295,-1.1502 -5.04324,-4.35451 -6.15899,-6.03474 -0.49306,-0.7425 -1.3592,-1.62 -1.92477,-1.95 -1.48015,-0.86363 -4.06362,-3.50477 -4.74238,-4.84823 -0.92449,-1.82982 -2.72581,-8.36329 -3.09107,-11.21146 -0.27385,-2.13537 -0.2487,-3.1445 0.13946,-5.59526 0.84568,-5.33942 3.60396,-11.46166 6.07678,-13.48795 1.16094,-0.95131 1.63894,-1.14208 3.13216,-1.25009 1.49161,-0.1079 1.96484,-0.009 3.08246,0.6463 0.72618,0.42557 1.75871,1.27305 2.29452,1.88331 0.82775,0.94275 0.95149,1.27887 0.82312,2.23594 -0.0831,0.61952 -0.60422,1.77914 -1.15805,2.57692 -0.96578,1.39118 -1.00766,1.56711 -1.02384,4.30052 -0.009,1.5675 -0.1998,3.5925 -0.42339,4.5 -0.25153,1.02091 -0.41667,3.53728 -0.43313,6.6 l -0.0266,4.95 2.7425,5.42092 c 3.24368,6.41156 4.05144,9.13263 3.2678,11.00815 -0.25759,0.61651 -0.64261,1.12093 -0.8556,1.12093 -0.21298,0 -0.98742,-0.38936 -1.72097,-0.86526 z m 39.97248,-6.417 c -0.17448,-0.21024 -0.60063,-1.77286 -0.94699,-3.47247 -0.85694,-4.20509 -1.82565,-6.47048 -4.41923,-10.33467 -1.2967,-1.93195 -2.32305,-3.81564 -2.49356,-4.57649 -0.41809,-1.86561 -0.67389,-6.22412 -0.3891,-6.6297 0.13347,-0.19007 0.85017,-0.4313 1.59267,-0.53606 1.26325,-0.17823 1.51384,-0.0858 3.9,1.43923 3.74314,2.39225 5.48708,3.86053 7.77139,6.54299 2.05966,2.41867 4.48494,6.39996 5.29186,8.68701 0.50674,1.43624 0.5596,2.90024 0.14417,3.99289 -0.24449,0.64307 -0.48336,0.76953 -1.4535,0.76953 -0.77993,0 -1.33913,-0.19691 -1.70392,-0.6 -0.79307,-0.87632 -1.28346,-0.73999 -1.80195,0.50094 -0.25301,0.60552 -0.72732,1.28818 -1.05403,1.51702 -0.32671,0.22883 -0.59402,0.62425 -0.59402,0.87869 0,0.25445 -0.41928,0.85429 -0.93173,1.33299 -0.99029,0.92507 -2.35901,1.15449 -2.91206,0.4881 z m -35.2346,-5.69274 c -1.98368,-1.88923 -2.3552,-2.41149 -2.82767,-3.975 -0.96319,-3.18735 -0.57014,-14.5908 0.64201,-18.62651 0.91816,-3.05692 2.77522,-4.73986 4.00358,-3.62821 0.33919,0.30697 1.05926,0.50472 1.83778,0.50472 1.76226,0 2.88959,0.84724 3.1303,2.35255 0.10273,0.64244 0.38971,1.55718 0.63774,2.03276 0.82094,1.57415 0.38895,3.59756 -0.80419,3.76671 -0.44171,0.0626 -0.84605,0.44989 -1.12031,1.07298 -0.35788,0.81311 -0.59167,0.975 -1.40798,0.975 -1.41318,0 -1.91287,0.87083 -1.91287,3.33361 0,2.57238 0.669,6.07046 1.80201,9.42235 1.33289,3.94322 1.21519,4.94404 -0.58143,4.94404 -0.97442,0 -1.40357,-0.27461 -3.39897,-2.175 z"
         id="path4205"
         inkscape:connector-curvature="0" />
      <path
         style="fill:#318dc9"
         d="m 111.05338,611.66665 c -0.092,-0.47674 -0.2567,-1.85686 -0.36599,-3.06693 -0.19756,-2.18751 -0.19045,-2.21678 1.23881,-5.10001 1.69249,-3.41423 3.7966,-6.16518 6.66619,-8.71553 2.06859,-1.83845 2.07738,-1.85292 2.43207,-4.00063 0.45929,-2.78111 0.79552,-3.50799 4.84081,-10.46536 1.85996,-3.1989 3.56201,-6.24759 3.78232,-6.77487 0.22031,-0.52728 1.60408,-3.22777 3.07504,-6.00108 2.50536,-4.72355 2.7637,-5.38385 4.08556,-10.44239 2.14055,-8.19147 3.43963,-14.68487 3.44327,-17.21091 0.003,-2.02366 1.11031,-9.99306 1.83966,-13.2391 0.16683,-0.7425 0.55942,-3.4425 0.87242,-6 1.16494,-9.51869 2.00586,-11.33533 4.59024,-9.91626 l 0.84915,0.46626 -0.18336,3.6 c -0.10085,1.98 -0.21297,4.77301 -0.24915,6.20668 -0.0656,2.59959 -0.063,2.60959 0.96676,3.67365 0.99275,1.02586 1.03752,1.17108 1.16169,3.76832 0.15337,3.20788 0.14653,3.2045 3.41932,1.68868 1.20254,-0.55696 2.4227,-1.09273 2.71145,-1.19058 0.59599,-0.20197 0.66641,-1.17077 0.22429,-3.08553 -0.41746,-1.8079 -1.25497,-11.41462 -1.14414,-13.12382 l 0.0949,-1.4626 -1.64043,-0.42299 c -4.01163,-1.03443 -5.06497,-2.64234 -5.09651,-7.77984 -0.022,-3.58502 1.38668,-6.6325 3.58694,-7.75979 0.4125,-0.21135 1.36797,-0.47408 2.12328,-0.58385 1.23342,-0.17925 1.65158,-0.0603 4.10599,1.16842 3.3087,1.65634 5.03675,3.40496 5.33582,5.39936 0.24342,1.62323 0.10529,2.05983 -1.74037,5.50088 -1.02925,1.91893 -1.81682,3.00198 -2.50875,3.45 -1.10755,0.71712 -1.25405,1.2427 -0.56011,2.00949 0.25073,0.27705 0.65483,1.54364 0.89801,2.81464 0.24319,1.271 0.56117,2.53995 0.70663,2.81989 0.14546,0.27995 0.42028,1.42007 0.6107,2.5336 0.94244,5.51114 5.75339,23.37669 7.3585,27.32595 3.30758,8.13806 4.86357,11.72081 6.01486,13.84945 1.56231,2.88857 3.51365,7.52345 4.35046,10.33331 0.40448,1.35816 1.07072,2.64429 1.96914,3.80128 0.74681,0.96174 1.42632,2.08989 1.51001,2.50701 0.23974,1.19479 3.25851,7.24432 5.1027,10.22568 0.92256,1.49143 2.44761,3.68392 3.389,4.8722 0.94139,1.18829 2.15054,2.80159 2.68701,3.58513 0.53647,0.78354 1.35395,1.62036 1.81662,1.85962 0.46267,0.23925 1.66385,1.12238 2.66929,1.96251 1.62294,1.3561 1.85149,1.68361 2.03668,2.91858 0.18226,1.21538 0.12449,1.45919 -0.45744,1.9304 -0.36633,0.29663 -1.1615,0.67966 -1.76704,0.85118 -2.16518,0.61326 -9.93928,1.18639 -18.20099,1.34182 -4.62,0.0869 -9.21,0.23229 -10.2,0.32304 -5.39992,0.49502 -8.49227,0.81578 -12,1.24471 -2.96666,0.36277 -5.26412,0.43179 -9.6,0.28839 -13.83066,-0.45741 -16.06186,-0.46365 -18.24056,-0.0509 -1.18769,0.22498 -3.98194,0.56076 -6.20944,0.74617 -3.51373,0.29246 -4.20422,0.43865 -5.21466,1.10401 -0.98443,0.64822 -1.61765,0.79186 -4.09198,0.92821 l -2.92733,0.1613 -0.16729,-0.86681 z m 73.77288,-13.11498 c 0.084,-0.219 -0.60511,-1.60275 -1.53144,-3.075 -0.92633,-1.47225 -2.4147,-4.19899 -3.30748,-6.05942 -0.89279,-1.86043 -1.81021,-3.45435 -2.03871,-3.54203 -0.22851,-0.0877 -1.54689,0.0442 -2.92973,0.29311 -3.37717,0.60786 -10.43065,1.09253 -14.66426,1.00763 -2.44637,-0.0491 -4.01728,0.077 -5.4,0.43345 -1.10542,0.28493 -3.90799,0.59129 -6.47068,0.70733 -3.85425,0.17452 -4.65917,0.13308 -5.46011,-0.2811 -0.51668,-0.26718 -1.51987,-0.49172 -2.22932,-0.49896 -0.70944,-0.007 -1.82989,-0.21861 -2.48989,-0.46972 -0.66,-0.2511 -1.41882,-0.52636 -1.68626,-0.61169 -0.77631,-0.24768 -2.50169,1.51379 -3.34161,3.4115 -0.44155,0.99763 -0.9249,2.91628 -1.13901,4.52129 -0.2884,2.16192 -0.49674,2.855 -0.92754,3.08556 -0.60304,0.32273 -0.75184,0.87623 -0.23557,0.87623 0.17601,0 0.77383,-0.34614 1.3285,-0.7692 0.93806,-0.7155 1.33991,-0.78845 5.75498,-1.04471 4.8142,-0.27942 11.29117,-0.22378 18.09651,0.15548 3.16519,0.17639 3.97411,0.32594 5.1871,0.95901 1.4317,0.74722 1.47267,0.75039 10.89099,0.84072 5.19963,0.0499 9.53668,0.17347 9.63789,0.27468 0.36534,0.36534 2.80099,0.18885 2.95564,-0.21416 z m -56.28357,-0.63742 c 0.47811,-0.5761 0.11187,-1.6644 -0.56012,-1.6644 -0.57161,0 -1.21984,1.10994 -1.00744,1.725 0.17625,0.51035 1.12412,0.4737 1.56756,-0.0606 z m 45.4452,-20.2373 c 0.0928,-0.1501 -0.12069,-0.92635 -0.47434,-1.725 -0.35365,-0.79866 -1.14743,-2.73068 -1.76396,-4.29338 -0.61653,-1.56271 -1.32568,-2.97041 -1.57588,-3.12823 -0.3128,-0.19731 -1.19123,-0.0595 -2.81199,0.44128 -2.12732,0.65724 -2.88346,0.72799 -7.75708,0.72581 -4.82842,-0.002 -5.76518,-0.0889 -8.85,-0.81939 -1.947,-0.46106 -4.36488,-1.27744 -5.55,-1.87393 -3.16137,-1.59115 -3.52319,-1.4359 -3.83553,1.64574 -0.092,0.9075 -0.47151,2.55268 -0.84339,3.65596 -0.93405,2.7711 -0.76743,2.93335 2.98355,2.90521 3.29391,-0.0247 13.87032,0.50055 18.79537,0.93341 1.815,0.15952 4.4475,0.3733 5.85,0.47507 1.4025,0.10177 3.1575,0.42873 3.9,0.72658 1.64498,0.65989 1.72178,0.67303 1.93325,0.33087 z m -28.02898,-21.20154 c 1.27168,-1.21732 3.43705,-2.00344 8.24573,-2.99352 4.11755,-0.84779 6.82281,-1.51843 8.05206,-1.99613 0.69645,-0.27065 0.82727,-0.4731 0.71629,-1.10852 -0.15473,-0.88594 -1.82924,-7.15207 -2.57275,-9.62739 l -0.4956,-1.65 -1.84434,0.0842 c -1.01438,0.0463 -2.76555,0.27699 -3.89149,0.51257 -1.56899,0.32828 -2.34722,0.35277 -3.33174,0.10487 -2.21237,-0.55709 -2.38013,-0.31898 -4.57855,6.49831 -2.87184,8.90555 -3.34848,10.68478 -2.981,11.12757 0.49475,0.59614 1.39981,0.2748 2.68139,-0.95201 z m 34.61198,-7.04885 c -1.27466,-1.00911 -1.54117,-1.59194 -1.58635,-3.46919 -0.0259,-1.07736 0.067,-1.2668 0.69928,-1.42549 0.40104,-0.10066 1.08483,-0.0478 1.51953,0.11748 1.42193,0.54061 1.65129,0.40493 1.65129,-0.9769 0,-1.36108 0.95458,-3.47193 2.40703,-5.32261 0.98444,-1.25436 2.24367,-3.85629 5.0816,-10.50001 2.62365,-6.14206 2.43827,-5.83164 3.54893,-5.94268 1.80086,-0.18006 2.74577,1.96933 1.8739,4.26253 -0.33115,0.871 0.0782,1.32822 0.71552,0.79925 0.57016,-0.47318 0.76096,-1.66779 1.08118,-6.7691 0.15536,-2.475 0.48549,-6.3225 0.73363,-8.55 0.63221,-5.67524 0.57848,-7.98529 -0.27164,-11.67892 -0.40142,-1.74409 -0.92828,-4.04858 -1.17079,-5.12108 -0.44665,-1.97527 -1.67764,-5.70388 -2.42657,-7.35 -0.22521,-0.495 -0.76903,-1.90843 -1.20848,-3.14097 -1.737,-4.87176 -3.0826,-6.87763 -6.9852,-10.41279 -1.60671,-1.45543 -4.25906,-3.94366 -5.89413,-5.5294 l -2.97285,-2.88316 -0.25488,-1.86377 c -0.3091,-2.26016 -0.0371,-2.88187 1.37669,-3.1471 1.21566,-0.22806 2.04021,0.19258 3.97685,2.02881 1.06677,1.01145 1.33223,1.13614 1.725,0.81017 0.25531,-0.21189 0.46421,-0.70623 0.46421,-1.09852 0,-0.58143 0.15547,-0.71327 0.84114,-0.71327 1.26061,0 2.52904,1.52354 4.11355,4.94085 1.56434,3.3738 3.28281,6.06827 5.55449,8.70915 0.8516,0.99 1.89362,2.5833 2.3156,3.54067 0.65015,1.47504 0.97499,1.84129 2.12863,2.4 0.74877,0.36263 1.74814,1.14578 2.22083,1.74032 1.4359,1.80605 8.85846,18.69826 9.80636,22.31722 0.69003,2.63447 0.75763,3.53295 0.32642,4.33867 -0.16114,0.30108 -0.35331,1.94596 -0.42705,3.65528 -0.15146,3.51076 -0.69588,6.37427 -1.95974,10.30784 -0.47713,1.485 -0.95307,3.105 -1.05764,3.6 -0.10457,0.495 -0.81746,2.1825 -1.58419,3.75 -1.16451,2.38073 -1.81676,3.27007 -3.96123,5.40114 -2.93428,2.91595 -5.40858,4.88617 -7.89389,6.28571 -1.24779,0.70267 -1.77558,1.19298 -1.90288,1.76776 -0.0969,0.43747 -0.23786,1.02421 -0.31326,1.30388 -0.0754,0.27966 -0.8391,0.9386 -1.69712,1.46431 -0.85801,0.5257 -1.62752,1.05573 -1.71002,1.17782 -0.0825,0.1221 -0.9899,0.64441 -2.01645,1.16069 -1.50911,0.75898 -2.23352,0.9387 -3.78375,0.9387 -1.68845,0 -2.0565,-0.11021 -3.08355,-0.92329 z m -58.24199,-9.25634 c -1.97469,-1.08872 -4.92294,-3.18567 -7.35427,-5.23076 -2.96056,-2.49026 -5.26715,-4.02673 -7.04174,-4.69069 -3.00031,-1.12256 -6.123,-3.67697 -8.564105,-7.00557 -3.400981,-4.63745 -3.932341,-5.64432 -5.596686,-10.60512 -1.361013,-4.05668 -1.982049,-7.27352 -2.283508,-11.82811 -0.190165,-2.87312 -0.149019,-3.31998 0.414351,-4.5 0.494527,-1.03583 0.687517,-2.29661 0.92178,-6.0219 0.260989,-4.15027 0.424136,-5.09382 1.369,-7.9175 0.589985,-1.76315 2.092993,-5.20074 3.340017,-7.63909 3.370311,-6.59008 6.305031,-9.71067 10.839451,-11.52592 1.91885,-0.76817 2.06676,-0.78255 4.62586,-0.44995 2.45281,0.3188 2.70362,0.30135 3.47461,-0.24173 1.87588,-1.32133 3.67837,-1.06372 4.26151,0.60906 0.72806,2.08852 0.50175,2.44146 -5.53157,8.6269 -4.74398,4.86359 -7.17358,7.93339 -9.25998,11.7 -0.77688,1.4025 -1.52967,2.7525 -1.67289,3 -0.14321,0.2475 -0.41334,1.02375 -0.60028,1.725 -0.3987,1.49557 -1.08052,1.67395 -1.36948,0.3583 -0.30725,-1.39891 -1.10019,-1.02035 -1.71026,0.81649 -0.890246,2.68044 -1.996303,7.94085 -2.290175,10.89209 -0.269076,2.70223 -0.239333,2.9897 0.605267,5.85001 0.949156,3.21438 2.950988,7.25465 5.372348,10.84296 2.25207,3.33742 5.8441,7.52405 7.17782,8.366 0.65249,0.41189 1.45676,1.27896 1.78727,1.92681 0.33051,0.64785 2.46224,3.11166 4.73719,5.47513 4.5112,4.68673 6.83493,7.54445 6.53256,8.0337 -0.27439,0.44398 -0.42088,0.40601 -2.18409,-0.56611 z m 62.02574,-16.31593 c 0,-0.38255 0.21271,-1.41183 0.47269,-2.28729 0.5585,-1.88065 0.32285,-2.2948 -1.22958,-2.16106 l -1.04311,0.0899 0,-1.42544 c 0,-0.78398 0.33719,-2.40237 0.74932,-3.59642 1.50261,-4.35346 1.58886,-9.10609 0.28481,-15.69399 -0.5802,-2.93109 -4.12248,-10.20122 -7.10397,-14.58013 -1.23579,-1.815 -2.6169,-4.0425 -3.06913,-4.95 -0.45223,-0.9075 -1.35719,-2.204 -2.01103,-2.88111 -1.07054,-1.10866 -1.1794,-1.36231 -1.0944,-2.55 0.0913,-1.27555 0.12967,-1.32185 1.16794,-1.40893 1.52374,-0.1278 4.31164,1.00441 5.64562,2.29278 0.62486,0.60349 1.91287,2.37976 2.86225,3.94726 0.94938,1.5675 2.51786,3.93 3.48551,5.25 1.97548,2.69479 3.92619,6.8496 4.77603,10.17244 0.68156,2.6649 1.30182,7.88225 0.99565,8.37502 -0.12047,0.1939 -0.22344,4.13254 -0.22882,8.75254 l -0.01,8.4 -0.96393,1.84452 c -1.0131,1.9386 -2.18789,3.10548 -3.12653,3.10548 -0.38517,0 -0.55954,-0.21676 -0.55954,-0.69555 z m -52.33604,-5.47017 c -1.91097,-0.99648 -4.67253,-3.5593 -6.49803,-6.03038 -0.6468,-0.87554 -1.89176,-2.04977 -2.76658,-2.60938 -2.60411,-1.66583 -4.1911,-4.092 -5.60023,-8.56155 -2.56105,-8.12324 -2.21285,-13.72359 1.31737,-21.18824 2.06288,-4.36197 3.76138,-5.84473 6.69511,-5.84473 2.47681,0 5.4884,2.33919 5.4884,4.26301 0,0.49698 -0.54054,1.79196 -1.23812,2.96615 -1.22134,2.05582 -1.23534,2.11214 -1.03378,4.15769 0.13854,1.40596 0.0601,2.78032 -0.24345,4.26839 -0.24628,1.20712 -0.54112,3.95611 -0.65521,6.10887 -0.25994,4.90509 0.005,5.92318 3.06245,11.7663 2.63211,5.0303 3.67083,8.41452 3.10702,10.12288 -0.39403,1.19393 -0.43297,1.20777 -1.63495,0.58099 z m 39.21061,-6.80928 c -0.16439,-0.20625 -0.39303,-1.05 -0.5081,-1.875 -0.27908,-2.00094 -1.23742,-5.76785 -1.82544,-7.17519 -0.26083,-0.62424 -1.53466,-2.75412 -2.83075,-4.73306 -2.2212,-3.39147 -2.377,-3.73858 -2.7132,-6.04491 -0.19617,-1.34576 -0.30952,-2.9833 -0.25188,-3.63899 0.0998,-1.13559 0.1643,-1.20383 1.35903,-1.43855 1.18103,-0.23202 1.42617,-0.14492 4.2,1.49215 2.03562,1.2014 3.73842,2.52642 5.51126,4.28855 2.89719,2.8797 4.02488,4.41642 5.86397,7.99092 1.34907,2.62207 1.81497,4.54089 1.47661,6.08141 -0.18374,0.83659 -0.31467,0.92767 -1.33341,0.92767 -0.75679,0 -1.31285,-0.20241 -1.68462,-0.6132 -0.76431,-0.84456 -1.67584,-0.637 -2.0342,0.4632 -0.16124,0.495 -0.61056,1.28161 -0.9985,1.74802 -0.38794,0.46641 -0.70534,1.03036 -0.70534,1.25323 0,1.13574 -2.82259,2.15556 -3.52543,1.27375 z m -34.65198,-5.11868 c -3.63373,-3.16725 -4.29322,-5.8461 -3.64814,-14.81886 0.45065,-6.2684 1.12839,-9.10036 2.57114,-10.74356 1.0377,-1.18187 1.69584,-1.30694 2.42098,-0.46004 0.38348,0.44788 0.74146,0.54466 1.53706,0.41555 1.12824,-0.18309 2.89637,0.61911 2.89637,1.31408 0,0.21127 0.28343,1.20313 0.62985,2.20414 0.82707,2.3899 0.61767,3.75837 -0.61659,4.02946 -0.60473,0.13282 -0.96079,0.45763 -1.17488,1.07175 -0.24451,0.70142 -0.48445,0.88116 -1.17628,0.88116 -1.57218,0 -2.01457,0.8892 -1.99415,4.00816 0.019,2.90129 0.52445,5.51765 1.77141,9.16939 1.11763,3.27302 0.95642,4.82245 -0.50177,4.82245 -0.29832,0 -1.52007,-0.85216 -2.715,-1.89368 z"
         id="path4203"
         inkscape:connector-curvature="0" />
      <path
         style="fill:#1b81c4"
         d="m 117.79578,610.54943 c -0.18277,-0.22023 -0.48778,-1.76765 -0.6778,-3.43871 -0.39329,-3.4586 -0.23939,-4.11462 1.43552,-6.11936 0.62767,-0.75127 1.00114,-1.52183 1.00114,-2.06559 0,-0.85113 0.24627,-2.08505 1.07298,-5.37592 0.22798,-0.9075 0.61589,-2.48932 0.86203,-3.51516 1.07879,-4.4961 6.52689,-13.22913 10.45302,-16.75568 l 1.56197,-1.403 0.34602,-3.24784 c 0.24899,-2.33699 0.57065,-3.73588 1.14696,-4.98808 0.44051,-0.95713 1.2035,-3.42774 1.69553,-5.49024 0.49204,-2.0625 1.16479,-4.6275 1.495,-5.7 0.92381,-3.00043 1.4657,-5.54482 1.94404,-9.12804 0.24761,-1.85487 0.96117,-4.93874 1.64356,-7.10318 1.19826,-3.80071 1.20471,-3.84682 1.00993,-7.22196 -0.13596,-2.35582 -0.0462,-4.72994 0.29277,-7.74683 0.62301,-5.5443 0.65107,-5.65585 1.52217,-6.05275 0.91215,-0.4156 2.12335,0.28096 2.59685,1.49344 0.37459,0.95921 0.86477,6.24753 1.05521,11.38431 0.10618,2.86392 0.22787,3.675 0.5514,3.675 0.22833,0 0.48467,-0.11249 0.56964,-0.24998 0.085,-0.13749 0.54629,-0.19247 1.02516,-0.12219 0.51733,0.0759 1.37005,-0.12699 2.10125,-0.50002 0.67683,-0.34529 1.42148,-0.62781 1.65477,-0.62781 0.23329,0 1.04867,-0.34904 1.81195,-0.77564 1.31563,-0.73532 1.38779,-0.84286 1.38779,-2.06822 0,-1.98018 -0.55757,-7.11027 -1.2042,-11.07956 -0.65579,-4.02559 -0.47634,-5.05681 0.90641,-5.20874 0.60894,-0.0669 0.842,0.12804 1.25519,1.05 0.27907,0.62269 0.55652,1.95976 0.61655,2.97127 0.0925,1.55924 0.23421,1.9473 0.93103,2.55 0.70407,0.60897 0.88577,1.11949 1.26739,3.56089 0.53877,3.44671 1.47738,8.11974 2.06297,10.27077 1.30886,4.8078 4.3495,13.94605 6.16538,18.52924 3.48476,8.79536 3.95732,10.22607 3.81494,11.55 -0.14692,1.36608 0.90492,4.20919 3.38739,9.15608 1.09597,2.18398 1.72773,3.09785 2.37177,3.4309 1.19674,0.61886 2.0953,1.9649 2.77975,4.16402 1.06451,3.42027 4.93995,9.8925 9.2805,15.499 2.95693,3.81933 3.70276,4.90317 4.30144,6.25079 0.67587,1.52139 0.41659,2.24407 -0.85956,2.39585 -0.46265,0.055 -0.76036,0.2488 -0.69139,0.45 0.082,0.23921 1.08111,0.35336 3.09279,0.35336 l 2.97165,0 0,0.9 0,0.9 -2.28183,0.0413 c -1.255,0.0227 -2.56237,0.19148 -2.90527,0.375 -0.3429,0.18351 -1.27358,0.33565 -2.06818,0.33809 -0.7946,0.002 -2.25576,0.19574 -3.24702,0.42956 -4.59372,1.08356 -8.57781,1.32557 -24.8977,1.51237 -15.41271,0.17641 -16.23951,0.21381 -17.01286,0.76953 -1.19253,0.85694 -4.14793,0.8159 -5.35204,-0.0743 l -0.89059,-0.65844 -1.35528,0.65844 c -1.2319,0.5985 -1.81692,0.65845 -6.42583,0.65845 -5.38541,0 -6.0134,-0.15779 -6.0134,-1.51087 0,-0.31241 -0.30119,-0.72921 -0.6693,-0.92622 -0.36812,-0.19701 -0.91792,-0.67426 -1.22178,-1.06055 -0.94938,-1.20695 -1.54731,-0.89789 -2.84911,1.47264 -1.34228,2.44426 -1.86452,2.99049 -3.32958,3.48252 -1.24023,0.41652 -1.09048,0.42235 -1.48909,-0.0579 z m 12.23952,-11.28652 c 0.62789,-0.008 1.29919,-0.26533 1.71781,-0.6586 0.65237,-0.61287 0.79,-0.62707 2.71933,-0.28056 5.69193,1.02228 14.38894,1.21336 21.5322,0.47307 4.93336,-0.51126 10.3504,-0.32517 11.6097,0.39882 0.71818,0.41289 1.36277,0.42183 5.70223,0.0792 2.69088,-0.2125 6.44401,-0.37858 8.34029,-0.36906 7.80663,0.0392 7.57523,0.0499 7.26975,-0.3379 -0.15941,-0.20239 -1.9022,-2.39298 -3.87287,-4.86798 -1.97066,-2.475 -4.10727,-5.20448 -4.74801,-6.06551 -1.51324,-2.03348 -2.25253,-2.28148 -5.19341,-1.74213 -3.06767,0.5626 -9.85228,1.05764 -14.4952,1.05764 -2.46623,0 -4.27428,0.15463 -5.27179,0.45086 -1.05466,0.3132 -3.15516,0.47114 -6.87945,0.51728 -5.92495,0.0734 -9.44133,-0.43395 -11.00135,-1.58733 -0.64111,-0.47399 -0.94275,-0.54402 -1.24888,-0.28995 -0.22199,0.18424 -0.7303,0.25298 -1.12958,0.15277 -0.47326,-0.11878 -0.86152,-0.0188 -1.11543,0.28708 -0.21421,0.25811 -0.63828,0.46929 -0.94237,0.46929 -0.36286,0 -1.14939,0.90226 -2.28827,2.625 -1.44698,2.18877 -1.76029,2.89882 -1.88536,4.2727 -0.13001,1.4281 -0.25891,1.69967 -0.96712,2.03759 -0.60278,0.28762 -0.93587,0.78978 -1.26983,1.91432 -0.24898,0.83844 -0.39044,1.62518 -0.31434,1.74831 0.0761,0.12313 0.71502,0.11235 1.41982,-0.024 0.70481,-0.13631 1.74527,-0.25371 2.31213,-0.2609 z m 9.17343,-16.09488 1.19591,-0.51046 -1.00316,-0.26974 c -0.55174,-0.14835 -1.56307,-0.22884 -2.24741,-0.17886 -1.44531,0.10556 -1.72212,0.6695 -0.92544,1.88539 l 0.51114,0.7801 0.63652,-0.59799 c 0.3501,-0.32889 1.17469,-0.82769 1.83244,-1.10844 z m 35.51367,-4.20702 c -0.22975,-0.27683 -0.37945,-0.72929 -0.33266,-1.00545 0.0468,-0.27617 -0.46937,-1.70668 -1.14701,-3.17891 -0.67763,-1.47224 -1.3058,-3.29546 -1.39592,-4.0516 -0.30302,-2.5424 -0.55666,-2.67672 -5.35152,-2.83412 -2.30486,-0.0757 -4.66315,-0.20728 -5.24065,-0.29251 -1.14032,-0.16827 -1.47462,-0.0162 -1.98132,0.90143 -0.27253,0.49354 -0.69838,0.61632 -2.4,0.692 -1.64005,0.0729 -2.87677,-0.12946 -5.96868,-0.97681 -2.145,-0.58786 -4.71,-1.35204 -5.7,-1.69819 -0.99,-0.34616 -2.07,-0.62702 -2.4,-0.62415 -1.63004,0.0142 -2.6575,0.25007 -2.86232,0.65715 -0.35389,0.70338 -1.74293,7.32324 -1.58944,7.575 0.0754,0.12375 0.38475,0.225 0.68737,0.225 0.9572,0 0.94212,0.84753 -0.0349,1.96027 -0.51182,0.58294 -0.8752,1.11526 -0.80752,1.18294 0.0677,0.0677 0.7269,-0.0191 1.46492,-0.19291 1.94627,-0.4583 8.2569,-0.34278 12.59187,0.23048 2.21623,0.29308 7.30833,0.58001 12.45,0.70154 4.785,0.1131 8.92581,0.30878 9.2018,0.43485 0.27599,0.12607 0.58292,0.4406 0.68206,0.69896 0.0991,0.25836 0.26382,0.38618 0.36595,0.28405 0.10213,-0.10212 -0.002,-0.41218 -0.23205,-0.68902 z m -24.86776,-19.01116 7.05,-0.15 0.0955,-1.16454 c 0.0525,-0.64049 -0.015,-1.26091 -0.15,-1.3787 -0.135,-0.1178 -1.86546,0.1065 -3.84546,0.49844 -2.06106,0.40798 -4.36948,0.67675 -5.4,0.62871 -1.56422,-0.0729 -1.81173,-0.16595 -1.88948,-0.71017 -0.0492,-0.34443 0.10388,-0.78673 0.34022,-0.98286 0.23633,-0.19614 2.5041,-0.68521 5.03948,-1.08683 2.53537,-0.40162 5.41978,-0.94954 6.40978,-1.21761 0.99,-0.26807 2.83269,-0.50969 4.09488,-0.53692 2.19549,-0.0474 2.28097,-0.0755 1.97351,-0.64952 -0.17675,-0.33 -0.35408,-1.275 -0.39406,-2.1 -0.0962,-1.98478 -2.74539,-11.53499 -3.412,-12.3 -0.28755,-0.33 -0.69648,-1.24473 -0.90873,-2.03273 -0.21225,-0.788 -0.49582,-1.50066 -0.63015,-1.58369 -0.42595,-0.26324 -4.13745,1.0885 -5.8956,2.14721 -0.93091,0.56056 -1.86241,1.01921 -2.07,1.01921 -0.66634,0 -2.20575,1.91189 -2.53631,3.15 -0.43984,1.6474 -1.07196,2.55 -1.78588,2.55 -0.88857,0 -1.30463,1.32385 -1.2257,3.9 0.0586,1.91191 -0.0997,2.75517 -1.05316,5.612 -0.99509,2.98146 -1.07726,3.4458 -0.72593,4.10226 0.34968,0.65339 0.31452,0.87236 -0.29965,1.86611 -0.40028,0.64767 -0.51221,1.00773 -0.26352,0.84774 0.23776,-0.15296 3.6048,-0.34561 7.4823,-0.42811 z m 16.2,-0.57513 c 0,-0.59443 -1.19667,-3.02487 -1.48934,-3.02487 -0.17087,0 -0.31066,0.33346 -0.31066,0.74101 0,0.47549 -0.3225,0.97946 -0.9,1.40642 -0.495,0.36597 -0.9,0.77501 -0.9,0.90898 0,0.13398 0.81,0.24359 1.8,0.24359 0.99,0 1.8,-0.12381 1.8,-0.27513 z m 18.45,-13.14637 c -1.38881,-0.20307 -1.56336,-0.49877 -1.41598,-2.3988 0.25516,-3.28953 4.88385,-9.7948 10.35186,-14.54874 0.95474,-0.83006 1.82777,-1.41731 1.94007,-1.30501 0.1123,0.1123 -0.0376,0.8849 -0.3331,1.7169 -0.2955,0.832 -0.46755,1.58245 -0.38233,1.66766 0.0852,0.0852 0.56843,-0.1395 1.07381,-0.49936 0.78849,-0.56146 0.91389,-0.83216 0.8837,-1.90773 -0.0199,-0.71008 0.23661,-1.83863 0.5918,-2.60343 0.46144,-0.99354 0.62873,-1.95816 0.63358,-3.65329 0.009,-3.0531 0.46589,-6.31963 1.41043,-10.07793 0.74323,-2.95732 0.75559,-3.14431 0.30725,-4.65 -0.25693,-0.86283 -0.55467,-2.58128 -0.66165,-3.81878 -0.22023,-2.54729 -1.64925,-9.23355 -2.50512,-11.72117 -0.31298,-0.90969 -0.73627,-2.66083 -0.94064,-3.89141 -0.43769,-2.63548 -0.88386,-3.80578 -2.22549,-5.83742 -2.25144,-3.40935 -4.05283,-6.82268 -5.38806,-10.20944 -0.77857,-1.97481 -1.81486,-4.43687 -2.30286,-5.47124 -0.85545,-1.81322 -1.0961,-2.76932 -0.69703,-2.76932 0.10464,0 1.47866,1.18125 3.05338,2.625 1.94437,1.78266 3.39347,3.44328 4.51585,5.175 0.90901,1.4025 2.18018,3.08483 2.82484,3.7385 0.64466,0.65368 1.62052,2.07895 2.16859,3.16727 0.54807,1.08832 1.2017,2.14907 1.45251,2.35723 0.25081,0.20815 0.54541,0.80788 0.65467,1.33273 0.10926,0.52485 0.54138,1.73052 0.96026,2.67927 0.65892,1.49246 0.87194,1.725 1.58017,1.725 1.36755,0 2.191,0.9809 3.81318,4.54232 4.34989,9.54999 5.73299,13.49892 5.77761,16.49582 0.0571,3.83312 -0.65479,9.07787 -1.8068,13.31186 -2.3632,8.6855 -3.20749,10.55663 -5.56931,12.34281 -0.6234,0.47145 -2.4231,2.07614 -3.99933,3.56597 -1.57622,1.48982 -3.47336,3.16687 -4.21586,3.72677 -0.7425,0.5599 -1.8225,1.4595 -2.4,1.99912 -0.5775,0.53962 -2.14701,1.52882 -3.48779,2.19823 -2.42174,1.20909 -3.2301,1.35123 -5.66221,0.99561 z m -64.50194,-7.87394 c -0.66107,-0.32724 -2.34206,-1.50838 -3.73553,-2.62477 -5.18085,-4.15065 -6.50837,-5.0988 -7.67099,-5.47875 -2.29666,-0.75057 -7.88333,-6.81231 -10.307486,-11.18399 -0.880196,-1.58733 -4.887688,-13.18541 -5.684557,-16.45168 -0.607362,-2.4895 -0.764671,-5.49099 -0.329586,-6.2886 0.226511,-0.41524 0.486887,-2.33781 0.607433,-4.48517 0.177723,-3.16588 0.352258,-4.11178 1.107115,-6 0.492871,-1.23288 1.048206,-3.25411 1.234078,-4.49161 0.593574,-3.95191 4.216574,-10.65214 7.723783,-14.28406 1.95852,-2.02816 3.78618,-3.11594 5.23531,-3.11594 0.52335,0 1.41752,-0.28799 1.98704,-0.63997 0.9062,-0.56006 1.17718,-0.59752 2.17022,-0.3 0.62409,0.18698 1.71167,0.33997 2.41684,0.33997 0.8723,0 1.40694,0.16781 1.67262,0.525 0.3252,0.43721 0.48123,0.46198 0.93308,0.14815 1.53542,-1.06645 2.45669,-1.37639 2.92816,-0.98511 1.38133,1.14641 0.0669,3.15883 -6.38475,9.77513 -5.07014,5.19955 -6.17679,6.52824 -7.34998,8.82469 -0.46703,0.91418 -1.1761,2.30339 -1.57571,3.08714 -0.76583,1.502 -0.98156,1.6486 -1.56599,1.06417 -0.28111,-0.28111 -0.61403,-0.0893 -1.50684,0.86815 -0.8495,0.91101 -1.30806,1.79996 -1.77233,3.43583 -1.205478,4.24751 -1.932557,7.92927 -2.095431,10.61077 -0.143014,2.35453 -0.06064,3.05229 0.637468,5.4 0.440936,1.48284 1.950933,4.99835 3.355543,7.81224 2.45144,4.91102 2.67048,5.23578 5.46313,8.1 1.60011,1.64111 3.37586,3.25384 3.9461,3.58384 0.57024,0.33 1.31274,1.12733 1.65,1.77184 0.33726,0.64451 2.51584,3.14201 4.84129,5.55 4.15136,4.29869 5.08916,5.46091 4.71135,5.83872 -0.35587,0.35588 -1.43841,0.18948 -2.64138,-0.40599 z m 65.36296,-18.07957 c -0.12617,-0.37125 -0.25091,-2.025 -0.27719,-3.675 -0.0831,-5.22081 -0.70568,-14.59664 -1.15855,-17.44875 -0.35898,-2.26083 -0.75178,-3.37914 -2.21283,-6.3 -1.88713,-3.77269 -3.40463,-6.3626 -5.53696,-9.44996 -0.72223,-1.04571 -1.62098,-2.41003 -1.99721,-3.03182 -1.62448,-2.68476 -2.34478,-6.31735 -1.40698,-7.09565 0.5901,-0.48975 1.95867,-0.10386 2.9785,0.83983 1.47418,1.36411 6.97629,9.09018 8.14438,11.43635 0.61611,1.2375 1.36792,2.5204 1.67068,2.85089 0.93906,1.02506 2.06875,3.85264 2.71193,6.78784 0.67304,3.07147 0.70875,4.18016 0.53594,16.63927 -0.12585,9.07381 -0.13684,9.122 -2.07925,9.122 -0.91741,0 -1.18834,-0.13324 -1.37246,-0.675 z m -56.27957,-4.35 c -0.58584,-0.45375 -1.38384,-1.2975 -1.77331,-1.875 -1.18535,-1.75758 -3.25172,-3.83922 -4.58901,-4.62292 -0.88689,-0.51976 -1.55726,-1.26545 -2.23381,-2.48484 -0.53165,-0.95823 -1.44122,-2.52383 -2.02127,-3.47911 -2.52872,-4.16454 -3.29664,-12.04763 -1.76316,-18.09966 0.96794,-3.82009 3.15095,-8.21151 4.77162,-9.59874 1.16453,-0.99679 1.26247,-1.02385 3.01555,-0.83303 0.99657,0.10847 2.03931,0.31446 2.31721,0.45776 0.27791,0.1433 0.8264,0.26054 1.21888,0.26054 1.16172,0 2.32585,1.46476 2.32585,2.92651 0,0.70245 -0.17085,1.34808 -0.3926,1.48358 -0.21592,0.13195 -0.66482,0.77396 -0.99754,1.42668 -0.41626,0.8166 -0.87865,1.25974 -1.48241,1.42069 -0.94959,0.25314 -2.08558,1.74909 -2.38945,3.1466 l -0.18394,0.84594 0.84797,-0.9777 c 1.06423,-1.22706 2.10404,-1.30097 2.38796,-0.16974 0.11079,0.44141 -0.0197,2.50016 -0.29002,4.57501 -0.57752,4.43304 -0.75203,9.59091 -0.3803,11.24036 0.261,1.15811 0.2565,1.16624 -0.53482,0.96763 -1.31767,-0.33072 -1.23415,0.42946 0.42955,3.90978 2.24489,4.69612 3.8856,8.53798 3.8856,9.09848 0,0.48372 -0.54607,1.20618 -0.9117,1.20618 -0.10543,0 -0.67101,-0.37125 -1.25685,-0.825 z m -4.13145,-20.30729 c 0,-0.23776 -0.135,-0.51573 -0.3,-0.61771 -0.165,-0.10197 -0.3,0.0926 -0.3,0.4323 0,0.33973 0.135,0.6177 0.3,0.6177 0.165,0 0.3,-0.19453 0.3,-0.43229 z m -0.3,-7.96771 c 0,-0.33 -0.12056,-0.6 -0.26791,-0.6 -0.33721,0 -0.65176,0.78034 -0.41142,1.02067 0.36112,0.36113 0.67933,0.16409 0.67933,-0.42067 z m 46.89956,24.06788 c -0.19274,-0.12261 -0.76086,-2.65179 -1.26249,-5.6204 -0.50163,-2.96861 -1.10322,-6.02624 -1.33686,-6.79474 -0.44671,-1.46934 -3.09257,-5.22497 -4.67089,-6.63005 -1.86055,-1.65632 -0.94303,-4.41153 1.62983,-4.8942 0.92141,-0.17286 1.41822,-0.0537 2.73222,0.65512 5.3777,2.90109 11.50863,10.45546 11.50863,14.18064 0,1.19877 -0.003,1.20144 -1.275,1.2935 -1.14088,0.0825 -1.28499,0.17904 -1.36993,0.91725 -0.11452,0.99525 -0.79719,1.08056 -1.28927,0.16112 -0.34311,-0.64112 -0.36241,-0.64369 -0.56271,-0.075 -0.11408,0.32388 -0.23503,1.28489 -0.26879,2.13555 -0.12346,3.11091 -2.23815,5.68689 -3.83474,4.67121 z m -19.92848,-2.29545 c -1.77091,-0.94662 -2.27564,-1.75069 -2.68152,-4.27185 -0.75888,-4.71383 0.71644,-7.22402 4.72943,-8.04691 2.37878,-0.48779 7.05823,1.56519 8.08254,3.546 0.26893,0.52005 0.55185,1.82437 0.6287,2.89848 0.12541,1.75276 0.05,2.1056 -0.73536,3.44236 -1.22753,2.0893 -2.93939,2.93701 -6.19856,3.06954 -2.13641,0.0869 -2.621,0.006 -3.82523,-0.63762 z m 5.22874,-5.89183 c 0.50023,-0.71418 0.32537,-1.75139 -0.33818,-2.00601 -0.58747,-0.22544 -1.56164,0.9652 -1.56164,1.90865 0,0.56011 0.16019,0.71676 0.73299,0.71676 0.40314,0 0.92822,-0.27873 1.16683,-0.6194 z m -20.36299,2.50284 c -1.70739,-1.64298 -2.21497,-2.35027 -2.64337,-3.68344 -0.9977,-3.10488 -1.19274,-6.35481 -0.69706,-11.61508 0.51601,-5.47594 1.05227,-7.12715 2.90097,-8.93236 1.25154,-1.22209 1.99008,-1.25497 2.15436,-0.0959 0.074,0.52193 0.32077,0.71638 0.99827,0.78652 3.10153,0.32111 3.75397,1.01114 3.51586,3.71844 -0.10337,1.17531 -0.2917,1.53942 -1.12499,2.17501 -0.55046,0.41985 -1.2461,0.76361 -1.54586,0.76391 -0.73272,6e-4 -2.07085,2.22113 -2.31336,3.83863 -0.25509,1.70145 0.50963,6.34523 1.64865,10.01148 1.08455,3.49096 1.07623,4.85969 -0.0303,4.98279 -0.57566,0.064 -1.24123,-0.38925 -2.86317,-1.95 z"
         id="path4201"
         inkscape:connector-curvature="0" />
      <path
         style="fill:#0c79c0"
         d="m 118.06927,609.93835 c -0.14397,-0.37868 -0.35347,-1.89226 -0.46554,-3.36351 -0.22603,-2.96728 -0.0407,-3.73487 1.31994,-5.46584 0.47951,-0.61004 0.93691,-1.58165 1.01644,-2.15915 0.57964,-4.20859 1.70449,-8.66687 2.94141,-11.65806 1.99124,-4.81532 6.40492,-11.19664 9.72656,-14.06271 l 1.30872,-1.12923 0.30594,-3.33305 c 0.16826,-1.83317 0.52948,-3.92567 0.80269,-4.65 0.97518,-2.58529 1.59643,-4.67016 2.49319,-8.36695 1.11009,-4.57622 2.09957,-8.04759 2.5226,-8.85 0.17397,-0.33 0.34888,-1.68 0.38869,-3 0.0574,-1.90329 0.34168,-3.20716 1.37356,-6.3 l 1.30117,-3.90001 -0.071,-5.1 c -0.0734,-5.27094 0.54911,-11.91088 1.18895,-12.68184 0.61277,-0.73834 1.83951,-0.30515 2.40412,0.84895 0.60197,1.23046 1.06697,5.5766 1.19222,11.14313 0.0477,2.12067 0.22432,3.94871 0.39826,4.12252 0.32478,0.32454 0.36017,0.31697 4.03748,-0.86308 1.0725,-0.34416 2.1312,-0.62438 2.35268,-0.62271 0.22147,0.002 0.74593,-0.26697 1.16545,-0.59697 0.41953,-0.33 1.09025,-0.6 1.49049,-0.6 0.72058,0 0.72587,-0.0213 0.54048,-2.175 -0.3708,-4.30737 -1.0774,-10.29894 -1.35329,-11.475 -0.73485,-3.13253 -0.0888,-4.87629 1.29427,-3.49324 0.50783,0.50783 0.66323,1.08996 0.75193,2.81668 0.10477,2.0396 0.17617,2.2332 1.13455,3.07656 0.97969,0.86212 1.03584,1.02629 1.33388,3.9 0.33177,3.19898 0.91954,6.28765 1.79832,9.45 0.97602,3.51231 4.52872,13.84236 6.60323,19.20001 3.00262,7.75457 3.3686,8.94108 3.42385,11.1 0.0548,2.14183 0.5588,3.50523 3.36228,9.09569 1.39188,2.77556 1.77731,3.30822 2.66094,3.67743 1.10335,0.46101 2.2589,2.31534 2.69316,4.32178 0.27444,1.26798 2.22873,5.19769 3.72157,7.48335 0.96537,1.47807 6.16545,8.57465 8.36645,11.41774 0.74544,0.96291 1.54428,2.9297 1.5552,3.82901 0.002,0.2091 -0.36042,0.37703 -0.82044,0.37959 -1.10574,0.006 -1.65708,0.39679 -1.52623,1.08136 0.0959,0.50195 0.48465,0.58056 3.5304,0.71405 2.35991,0.10343 3.46112,0.26643 3.5467,0.525 0.0922,0.27855 -0.4803,0.37547 -2.22588,0.37685 -1.4978,10e-4 -2.6616,0.16436 -3.20929,0.45 -0.47261,0.24648 -1.57798,0.44815 -2.45638,0.44815 -0.8784,0 -2.44922,0.19339 -3.49071,0.42977 -4.49947,1.02118 -9.50483,1.40855 -17.60775,1.36268 -4.39222,-0.0249 -11.42592,0.049 -15.63042,0.16411 -6.85217,0.18762 -7.71929,0.2681 -8.36546,0.77638 -1.02667,0.80758 -3.64712,0.78792 -4.38998,-0.0329 -0.70237,-0.7761 -1.66745,-0.75928 -3.23696,0.0564 -1.11932,0.58174 -1.67269,0.64941 -4.86304,0.59465 -5.4951,-0.0943 -6.0887,-0.22364 -6.59559,-1.43679 -0.23309,-0.55786 -0.54498,-1.0143 -0.69309,-1.0143 -0.14811,0 -0.76542,-0.48184 -1.3718,-1.07075 -0.60638,-0.58891 -1.32266,-1.02766 -1.59172,-0.975 -0.26907,0.0527 -1.1099,1.12311 -1.86851,2.37879 -1.75043,2.89734 -1.97225,3.15352 -3.0585,3.53219 -0.79935,0.27865 -0.9222,0.23862 -1.15616,-0.37673 z m 70.48537,-6.7885 c 0,-0.165 -0.21047,-0.3 -0.46771,-0.3 -0.25724,0 -0.38427,0.135 -0.28229,0.3 0.10197,0.165 0.31244,0.3 0.4677,0.3 0.15526,0 0.2823,-0.135 0.2823,-0.3 z m -59.48726,-3.33726 c 1.41024,-0.20349 2.57523,-0.54862 2.93726,-0.87016 0.5029,-0.44667 0.84274,-0.49034 2.1,-0.26985 5.61138,0.9841 15.24029,1.17106 23.03533,0.44726 5.38489,-0.50001 8.97276,-0.33202 10.32675,0.4835 0.93195,0.56133 1.12458,0.56528 6.15,0.12626 6.05754,-0.52918 12.98282,-0.69088 15.01292,-0.35053 0.78375,0.1314 1.425,0.14223 1.425,0.0241 0,-0.11816 -0.97875,-1.39384 -2.175,-2.83485 -1.19625,-1.44101 -3.62868,-4.46269 -5.40538,-6.71486 -2.30175,-2.91771 -3.46585,-4.15394 -4.0495,-4.30043 -0.45052,-0.11307 -2.03435,-0.045 -3.51962,0.15132 -1.48528,0.1963 -5.5355,0.49501 -9.0005,0.6638 -6.16773,0.30044 -8.41551,0.51205 -12.54755,1.18123 -1.13416,0.18368 -3.87758,0.27297 -6.15,0.20017 -7.04908,-0.22583 -9.95245,-0.89236 -9.95245,-2.2848 0,-0.76845 1.31216,-1.75448 2.65543,-1.99545 2.77938,-0.49859 2.02928,-1.3018 -1.43762,-1.53943 -1.70701,-0.117 -2.53663,-0.0548 -2.86099,0.21435 -0.58262,0.48354 -0.58581,1.32516 -0.007,1.80567 0.44854,0.37225 0.61402,1.53598 0.26766,1.88234 -0.10029,0.10029 -0.43024,0.0275 -0.73322,-0.16168 -0.43553,-0.27199 -0.66443,-0.24126 -1.0932,0.14677 -0.29828,0.26994 -0.91503,0.6325 -1.37055,0.80569 -0.48161,0.18311 -1.17191,0.89637 -1.64945,1.70432 -0.45168,0.76419 -1.27464,1.99298 -1.8288,2.73065 -0.79165,1.0538 -0.9702,1.5281 -0.83316,2.21328 0.2137,1.06852 -0.0297,1.79035 -0.53787,1.59533 -0.23797,-0.0913 -0.57025,0.39 -0.89325,1.29395 -0.28288,0.79164 -0.70869,1.88268 -0.94624,2.42453 -0.77679,1.77182 -0.75398,1.78091 3.08083,1.22756 z m 63.08726,-0.25219 c 0,-0.35779 -1.18887,-1.02169 -1.41845,-0.79211 -0.24778,0.24778 0.52712,1.08156 1.00518,1.08156 0.2273,0 0.41327,-0.13025 0.41327,-0.28945 z m -16.70791,-19.70265 c 0.10565,-0.10565 -0.003,-0.5444 -0.24222,-0.975 -0.94847,-1.70974 -2.62192,-6.2898 -2.97156,-8.1329 -0.20346,-1.0725 -0.55439,-2.24191 -0.77985,-2.59869 -0.43522,-0.68871 -2.06698,-1.06067 -2.81549,-0.64178 -0.23398,0.13093 -2.15902,0.0973 -4.27787,-0.0748 -4.37172,-0.355 -4.93562,-0.28363 -5.3551,0.67771 -0.45339,1.03904 -2.72037,1.06641 -6.37499,0.077 -5.96467,-1.61488 -9.7579,-2.53943 -10.41868,-2.53943 -0.55929,0 -0.71314,-0.20945 -0.86878,-1.18279 -0.10403,-0.65053 -0.33888,-1.27533 -0.52189,-1.38843 -0.49715,-0.30726 -0.89962,0.50026 -0.75817,1.52122 0.0686,0.495 -0.0399,1.1025 -0.24094,1.35 -0.2011,0.2475 -0.67829,1.935 -1.06042,3.75 -1.09216,5.18739 -1.0814,4.89458 -0.18817,5.11877 0.43012,0.10795 0.78204,0.28924 0.78204,0.40287 0,0.11362 -0.54,0.73389 -1.2,1.37836 -0.66,0.64447 -1.2,1.34687 -1.2,1.56088 0,0.48286 -0.0464,0.48516 1.53728,-0.0761 2.13805,-0.75776 6.48363,-0.86284 12.25911,-0.29643 2.88552,0.28298 5.36887,0.59021 5.51857,0.68273 0.14969,0.0925 3.45881,0.14881 7.3536,0.12509 7.1536,-0.0436 9.88119,0.22036 10.54512,1.02034 0.37851,0.45609 0.9549,0.56494 1.27841,0.24142 z m -32.8832,-18.92408 c 0.67997,-0.44554 1.72273,-0.52358 7.6201,-0.57034 3.75778,-0.0298 6.97603,-0.14298 7.15166,-0.25153 0.51318,-0.31716 0.40199,-3.14907 -0.13167,-3.35386 -0.24806,-0.0952 -1.63181,0.0613 -3.075,0.34782 -3.69356,0.73321 -7.14842,1.15647 -7.70289,0.94369 -0.63329,-0.24301 -0.5989,-1.02036 0.0539,-1.2186 0.28875,-0.0877 2.3475,-0.42963 4.575,-0.75988 2.2275,-0.33025 5.07835,-0.87228 6.33523,-1.20451 3.21915,-0.8509 5.60189,-0.91875 6.14573,-0.175 0.49337,0.67472 0.54643,2.05979 0.11014,2.875 -0.16989,0.31745 -0.70989,0.78454 -1.2,1.03799 -0.49011,0.25344 -0.8911,0.64206 -0.8911,0.8636 0,0.49033 1.91341,0.78997 3.6,0.56375 1.49388,-0.20037 1.52626,-0.57557 0.28576,-3.31142 -0.55532,-1.22474 -0.84869,-2.27741 -0.74729,-2.68141 0.11806,-0.47041 -0.01,-0.75955 -0.43577,-0.98768 -0.44084,-0.23592 -0.6027,-0.62789 -0.6027,-1.45945 0,-0.6253 -0.31936,-2.07585 -0.70969,-3.22346 -0.39032,-1.1476 -1.08221,-3.5675 -1.53753,-5.37754 -0.45531,-1.81005 -1.07077,-3.69599 -1.36769,-4.19099 -0.29691,-0.495 -0.70002,-1.53717 -0.8958,-2.31593 -0.47709,-1.89779 -0.91244,-2.2305 -2.16234,-1.65256 -0.53733,0.24846 -1.31445,0.55202 -1.72695,0.67458 -0.4125,0.12256 -1.92693,0.81941 -3.36539,1.54855 -2.88075,1.46023 -3.71158,2.34521 -4.44257,4.7321 -0.3937,1.28554 -0.59897,1.53581 -1.46299,1.7836 -1.44883,0.41552 -1.90838,1.68037 -1.6493,4.53942 0.18395,2.02997 0.12136,2.43212 -0.70948,4.55831 -1.45462,3.72252 -1.68205,4.59015 -1.30266,4.96954 0.5059,0.5059 0.40467,0.98044 -0.41761,1.95768 -0.7693,0.91425 -0.99212,1.85471 -0.43945,1.85471 0.1708,0 0.66506,-0.23228 1.09834,-0.51618 z m 42.10696,-15.18966 c -0.73051,-0.27339 -1.1069,-0.64498 -1.28193,-1.26559 -0.31395,-1.11317 -0.0526,-2.65664 0.53207,-3.14184 0.24756,-0.20546 1.18611,-1.62413 2.08566,-3.15261 1.32587,-2.25285 2.26376,-3.36649 4.95336,-5.88158 1.82479,-1.7064 3.44538,-3.14678 3.60131,-3.20085 0.15593,-0.0541 0.0833,0.46916 -0.16141,1.16272 -0.8421,2.38675 -0.38842,2.71968 1.43009,1.04945 1.01187,-0.92938 1.125,-1.18392 1.125,-2.53142 0,-0.9126 0.21997,-1.88593 0.56282,-2.4903 0.41987,-0.74015 0.64619,-2.09698 0.89107,-5.34215 0.19263,-2.5527 0.64182,-5.6284 1.08718,-7.44411 0.91062,-3.71258 0.9212,-4.1635 0.15506,-6.60761 -0.32788,-1.04596 -0.59613,-2.54656 -0.59613,-3.33469 0,-1.57351 -1.18494,-7.22901 -2.10852,-10.06359 -0.32256,-0.99 -0.84325,-3.22848 -1.15708,-4.9744 -0.59902,-3.3326 -1.0793,-4.46914 -3.03223,-7.1756 -1.42095,-1.96921 -3.12877,-5.3982 -4.6319,-9.3 -0.60387,-1.5675 -1.45328,-3.62468 -1.8876,-4.57151 -0.43431,-0.94683 -0.72536,-1.7858 -0.64679,-1.86438 0.0786,-0.0786 1.41891,1.04748 2.9785,2.50235 1.84526,1.72136 3.23173,3.32356 3.96979,4.58745 0.6238,1.06823 1.682,2.47185 2.35158,3.11916 0.66957,0.64731 1.67458,2.07814 2.23336,3.17961 0.55877,1.10147 1.15021,2.08566 1.31431,2.18708 0.1641,0.10142 0.57695,1.09021 0.91746,2.19732 1.04432,3.39551 1.49512,4.09847 2.7,4.21028 0.57701,0.0536 1.33955,0.36833 1.69454,0.69951 0.55576,0.5185 2.74183,5.05343 4.60509,9.55313 0.30746,0.7425 0.90349,2.13791 1.32452,3.10092 0.42103,0.963 0.97528,2.96 1.23168,4.43778 0.62161,3.58268 0.18138,10.12902 -0.94139,13.99874 -0.4169,1.43691 -1.01604,3.86467 -1.3314,5.39502 -0.79038,3.83534 -1.81092,5.85574 -4.01311,7.94489 -4.63056,4.39285 -7.66109,7.11313 -9.26047,8.31241 -0.95681,0.71746 -1.87168,1.55115 -2.03305,1.85266 -0.37884,0.70787 -4.95299,2.89335 -6.46424,3.08854 -0.63968,0.0826 -1.62842,-0.0239 -2.1972,-0.23679 z m 20.66837,-35.81917 c 0.40024,-1.44118 0.39737,-2.08916 -0.0104,-2.34115 -0.51737,-0.31975 -0.79714,0.19821 -1.02147,1.89115 -0.17373,1.31114 -0.13095,1.575 0.25536,1.575 0.28069,0 0.58749,-0.44451 0.77648,-1.125 z m -85.93422,27.76644 c -1.24865,-0.65767 -7.79349,-5.76173 -8.50995,-6.63657 -0.22547,-0.27531 -0.96797,-0.64675 -1.65,-0.82542 -0.93724,-0.24553 -1.88909,-0.96033 -3.89791,-2.92715 -5.23419,-5.12476 -6.950546,-8.04894 -9.921894,-16.90407 -2.878821,-8.57938 -3.469617,-11.75632 -2.722455,-14.63972 0.248713,-0.95981 0.452205,-2.75173 0.452205,-3.98204 0,-2.30453 0.155355,-2.99904 1.359249,-6.07647 0.38729,-0.99 0.859344,-2.9475 1.049009,-4.35 0.704381,-5.20862 5.425346,-12.98397 9.770486,-16.09182 1.23677,-0.8846 1.64508,-1.0252 2.56194,-0.88219 0.83356,0.13002 1.41965,-0.0137 2.48605,-0.60975 1.20332,-0.67255 1.50998,-0.7324 2.22825,-0.43489 0.45809,0.18975 1.32091,0.31213 1.91739,0.27196 0.83807,-0.0564 1.21785,0.0916 1.67135,0.65169 l 0.58684,0.72472 1.17584,-0.81486 c 0.64672,-0.44817 1.47234,-0.81486 1.83472,-0.81486 1.98631,0 -0.70173,4.0874 -5.9676,9.0743 -2.13474,2.02163 -4.23492,4.2157 -4.66707,4.8757 -0.43215,0.66 -1.08609,1.47 -1.45319,1.8 -0.36711,0.33 -0.89412,1.22472 -1.17115,1.98826 -0.27702,0.76355 -0.76117,1.62129 -1.07589,1.90611 -0.31472,0.28482 -0.65775,0.9073 -0.7623,1.3833 -0.24674,1.12337 -0.68217,1.37105 -1.1909,0.67737 -0.38311,-0.52239 -0.46984,-0.48446 -1.47469,0.64496 -1.86968,2.10146 -4.037246,10.23977 -4.114975,15.45 -0.04309,2.88805 0.0399,3.39948 0.997912,6.15 0.574698,1.65 1.977263,4.98611 3.116813,7.41358 1.90276,4.05324 2.2801,4.63415 4.62192,7.11532 1.4025,1.48596 3.19677,3.05503 3.98727,3.48683 0.87427,0.47755 1.74557,1.27346 2.22431,2.03183 0.43287,0.68571 2.72234,3.29552 5.08772,5.79958 2.36538,2.50406 4.3007,4.6991 4.3007,4.87785 0,0.52894 -1.55888,0.3465 -2.85,-0.33355 z m 66.46053,-17.32451 c -0.34222,-0.21962 -0.4216,-0.86667 -0.35874,-2.92447 0.081,-2.65078 -0.0826,-4.89318 -1.13987,-15.62501 l -0.56968,-5.78256 -1.8088,-3.44381 c -0.99484,-1.89409 -3.08774,-5.38822 -4.65089,-7.76473 -3.51922,-5.3504 -3.90648,-6.11749 -4.38041,-8.67685 -0.33011,-1.78266 -0.31971,-2.11051 0.0796,-2.50982 0.93134,-0.93134 2.62494,0.47368 5.31618,4.41032 0.3948,0.5775 1.36267,1.76514 2.15082,2.6392 0.84833,0.9408 1.99718,2.7768 2.81578,4.49999 0.76053,1.60095 1.7023,3.24831 2.09282,3.66081 0.9782,1.03325 2.06119,3.59154 2.73046,6.45 0.55222,2.35856 0.58225,3.42 0.35437,12.525 -0.0258,1.03125 0.0628,3.23098 0.197,4.88829 0.23632,2.91924 0.0443,6.56382 -0.38106,7.23362 -0.29965,0.47182 -1.93069,0.75172 -2.44759,0.42002 z m -57.05305,-5.04193 c -0.58536,-0.61875 -1.35137,-1.5975 -1.70224,-2.175 -0.35086,-0.5775 -1.32161,-1.59 -2.15721,-2.25 -0.8356,-0.66 -1.85093,-1.47 -2.25629,-1.8 -1.12419,-0.91519 -4.94828,-7.26885 -5.59741,-9.3 -0.87319,-2.73226 -1.08209,-9.39547 -0.40932,-13.05632 0.83384,-4.53729 2.76674,-8.8697 4.81592,-10.7944 0.69427,-0.6521 1.03141,-0.73911 2.59953,-0.67085 0.99099,0.0431 2.05117,0.21189 2.35595,0.375 0.30478,0.16312 0.9109,0.29657 1.34694,0.29657 1.03093,0 2.54665,1.49986 2.54665,2.52001 0,0.48619 -0.27407,0.94573 -0.75,1.25758 -0.4125,0.27028 -0.75,0.73485 -0.75,1.03238 0,0.9285 -0.3426,1.49003 -0.90908,1.49003 -0.83518,0 -2.25501,1.35142 -2.93122,2.78999 -0.33447,0.71155 -0.82223,1.47143 -1.08391,1.68861 -0.62998,0.52283 -0.60153,1.29966 0.0784,2.13927 l 0.55415,0.68434 0.92687,-1.96172 c 1.44788,-3.06446 2.62116,-3.0877 2.38472,-0.0472 -0.65228,8.38758 -0.90018,10.82909 -1.14595,11.28627 -0.19655,0.36562 -0.14371,0.8021 0.1707,1.41011 0.86562,1.67391 0.52879,2.01331 -1.86963,1.88385 -0.37125,-0.02 -0.675,0.0969 -0.675,0.25994 0,0.51696 0.90346,2.06658 1.20486,2.06658 0.2921,0 3.67268,6.7523 4.75383,9.49522 0.40854,1.03648 0.49802,1.63541 0.29776,1.99324 -0.4041,0.7221 -0.59806,0.65596 -1.79897,-0.61346 z m -3.53743,-17.91 c 0.43306,-0.44087 0.33077,-2.08454 -0.17005,-2.73266 -0.4448,-0.5756 -0.45552,-0.57539 -0.92617,0.0177 -0.55101,0.69431 -0.3985,3.60846 0.24801,4.73883 0.35605,0.62253 0.38371,0.59103 0.4732,-0.53883 0.0523,-0.66 0.22103,-1.32825 0.375,-1.485 z m -0.52058,-5.76177 c 0.22907,-1.41156 -0.12024,-2.15116 -0.69112,-1.4633 -0.31062,0.37428 -0.32116,0.64333 -0.0486,1.24144 0.19135,0.41998 0.27073,0.88848 0.1764,1.04111 -0.0943,0.15264 -0.0462,0.27752 0.10694,0.27752 0.15315,0 0.35854,-0.49355 0.45643,-1.09677 z m 46.58603,19.53113 c -0.0983,-0.25611 -0.45599,-2.58486 -0.79493,-5.175 -0.33894,-2.59015 -0.80237,-5.42658 -1.02985,-6.30319 -0.48469,-1.86777 -2.07209,-4.28728 -4.30149,-6.55629 -1.5636,-1.5914 -1.5865,-1.64056 -1.34141,-2.87988 0.4573,-2.31243 3.11635,-2.76397 5.76807,-0.97949 5.45428,3.67046 9.86236,9.34301 10.01225,12.88427 0.0438,1.03395 -0.0459,1.23919 -0.5744,1.3147 -0.34443,0.0492 -0.79971,-0.11954 -1.01173,-0.375 -0.63852,-0.76937 -0.91201,-0.53197 -0.91201,0.79165 l 0,1.25613 -0.8458,-0.81033 c -0.4652,-0.44568 -0.93769,-0.71844 -1.05,-0.60613 -0.11231,0.11231 -0.2042,1.24522 -0.2042,2.51757 0,2.41836 -0.54941,4.3019 -1.45603,4.9917 -0.69607,0.52962 -2.0443,0.48741 -2.25847,-0.0707 z m -18.18745,-1.61466 c -1.56044,-0.47466 -2.66226,-1.24096 -3.32411,-2.31186 -0.57512,-0.93056 -0.68717,-1.54053 -0.70396,-3.83227 -0.0178,-2.42538 0.0591,-2.8309 0.69769,-3.68198 1.37762,-1.83589 5.00232,-2.7154 7.40084,-1.79576 1.73238,0.66422 3.73255,2.15266 4.19251,3.11986 0.2531,0.53223 0.53183,1.81473 0.6194,2.85 0.13148,1.55431 0.0533,2.05012 -0.44889,2.84531 -0.90605,1.43479 -2.61474,2.41435 -4.83153,2.7698 -2.20659,0.35381 -2.54859,0.35732 -3.60195,0.0369 z m 3.71149,-5.44147 c 0.89465,-0.70373 1.0096,-1.63185 0.32345,-2.61147 -0.61534,-0.87852 -1.15192,-0.84159 -1.91774,0.13199 -0.82781,1.05239 -1.07004,2.10327 -0.61202,2.65515 0.51297,0.6181 1.27426,0.55748 2.20631,-0.17567 z m -20.09971,1.89627 c -1.59833,-1.50003 -1.92398,-1.99834 -2.47788,-3.79165 -1.06537,-3.4493 -1.36884,-7.05852 -0.97538,-11.60058 0.38339,-4.42578 1.0957,-6.52524 2.81852,-8.30727 1.10618,-1.14419 1.64621,-1.23526 1.77904,-0.3 0.0713,0.50214 0.32635,0.69886 0.99587,0.76818 1.71441,0.1775 3.14108,0.67961 3.4219,1.20432 0.44054,0.82315 -0.17857,3.28998 -0.8135,3.2414 -0.34408,-0.0263 -0.53911,0.22798 -0.6034,0.7868 -0.0816,0.70937 -0.1975,0.79997 -0.82264,0.64307 -0.65575,-0.16458 -0.81678,0.006 -1.62977,1.7243 -0.69084,1.46031 -0.90208,2.32851 -0.90195,3.70693 2.3e-4,2.31172 0.69616,6.25615 1.54958,8.78268 0.36806,1.08964 0.67608,2.5968 0.68449,3.34925 0.0224,2.00384 -0.7232,1.95271 -3.02488,-0.20743 z"
         id="path4199"
         inkscape:connector-curvature="0" />
      <path
         style="fill:#0173be"
         d="m 129.46387,607.78592 c -1.7271,-0.97348 -3.60923,-2.6651 -3.60923,-3.2439 0,-0.24846 0.27,-0.53743 0.6,-0.64217 0.41676,-0.13228 0.6,-0.45391 0.6,-1.05321 0,-1.1453 0.97167,-1.79557 2.69175,-1.80138 1.57446,-0.005 1.94847,-0.19257 2.23803,-1.12041 0.16943,-0.54293 0.4313,-0.675 1.33833,-0.675 2.05138,0 7.64725,0.60987 9.8145,1.06964 1.62696,0.34515 2.44499,0.37869 3.45,0.14146 0.72456,-0.17103 3.83611,-0.47235 6.91454,-0.6696 4.53871,-0.29083 6.05815,-0.28379 8.035,0.0373 1.39667,0.22681 3.08591,0.30992 3.95527,0.1946 1.70549,-0.22624 2.63238,0.19008 2.03249,0.9129 -0.25474,0.30694 -0.23726,0.43653 0.0713,0.52851 0.49315,0.14701 7.10957,0.72544 12.19796,1.0664 3.49002,0.23385 4.28474,0.39492 3.89104,0.78862 -0.19901,0.19901 -4.3195,0.59383 -9.30521,0.89162 l -3.525,0.21054 0,1.02145 c 0,1.41371 -0.89829,1.72746 -4.2,1.46696 -1.4025,-0.11065 -2.685,-0.18205 -2.85,-0.15865 -0.165,0.0234 -3.81,0.13734 -8.1,0.25321 -5.23092,0.14129 -8.01583,0.33163 -8.45528,0.57788 -0.81891,0.4589 -4.35858,0.48335 -4.80871,0.0332 -0.20867,-0.20867 -0.82219,-0.26017 -1.635,-0.13726 -0.71556,0.1082 -2.58351,0.31106 -4.15101,0.45078 -1.5675,0.13973 -3.525,0.33465 -4.35,0.43316 -1.2537,0.14969 -1.72017,0.055 -2.84077,-0.57662 z m -11.20923,-2.73607 c -0.52026,-0.52025 -0.16025,-2.2244 0.66957,-3.16951 0.47827,-0.54472 1.01533,-1.53167 1.19346,-2.19322 0.1899,-0.70524 0.94713,-1.90208 1.83043,-2.89313 0.82859,-0.92966 1.50654,-1.76176 1.50654,-1.84911 0,-0.0874 -0.50625,-0.20071 -1.125,-0.25192 -1.27122,-0.10521 -1.55693,-0.75113 -0.89859,-2.03144 0.4809,-0.9352 1.87568,-1.26353 4.34859,-1.02366 1.47952,0.14352 1.875,0.28764 1.875,0.68327 0,0.52258 -1.61137,5.43364 -2.12573,6.47872 -0.16241,0.33 -0.27302,1.005 -0.24578,1.5 0.0593,1.0773 -1.04467,3.61527 -1.6783,3.85841 -0.24761,0.095 -0.64873,0.0966 -0.89137,0.003 -0.24265,-0.0931 -0.80086,0.11363 -1.24046,0.45942 -0.77094,0.60642 -2.77385,0.87322 -3.21836,0.42871 z m 71.95803,-0.58482 c -0.60902,-0.60903 -0.45176,-1.13704 0.37499,-1.25902 0.90421,-0.1334 1.86698,0.4619 1.86698,1.15439 0,0.45175 -0.20525,0.58945 -0.87858,0.58945 -0.48321,0 -1.09673,-0.21817 -1.36339,-0.48482 z m -1.82444,-2.20285 c -0.69211,-0.28031 -2.53359,-2.26916 -2.53359,-2.73636 0,-0.36059 1.79872,-0.0835 3.225,0.49674 1.03648,0.42169 1.32916,1.45312 0.615,2.16729 -0.41026,0.41026 -0.46458,0.41326 -1.30641,0.0723 z m 4.25356,-3.17369 c -0.20109,-0.52402 0.479,-0.89257 1.16285,-0.63015 0.2475,0.095 0.45,0.37941 0.45,0.63209 0,0.61019 -1.37859,0.60853 -1.61285,-0.002 z m -5.18628,-3.66364 c -2.26246,-2.60175 -5.05435,-6.06145 -6.64846,-8.23875 -0.99824,-1.36344 -1.50441,-1.78098 -2.47626,-2.04267 -0.97074,-0.2614 -1.3101,-0.54088 -1.65287,-1.36126 -0.49,-1.17272 -0.61547,-1.22289 -1.36409,-0.5454 -0.75777,0.68578 -3.2972,1.21974 -8.49206,1.78562 -3.06693,0.33408 -4.81851,0.66822 -5.54555,1.05789 -1.2636,0.67724 -3.52787,0.73483 -4.35298,0.11071 -0.52202,-0.39485 -0.65117,-0.37422 -1.2646,0.20207 -0.58982,0.55411 -0.90554,0.61571 -2.30974,0.45067 -1.11349,-0.13086 -2.02762,-0.0497 -2.89812,0.25748 -1.28089,0.45192 -6.07734,0.61968 -7.42114,0.25955 -0.98269,-0.26335 -0.83495,-1.1267 0.39766,-2.32379 l 1.07266,-1.04175 -0.69766,-0.36018 c -0.38372,-0.19809 -0.99259,-0.62855 -1.35307,-0.95656 -0.36046,-0.32802 -1.10296,-0.6872 -1.65,-0.79819 -0.77664,-0.15756 -1.01435,-0.36943 -1.08476,-0.96679 -0.13048,-1.10701 0.42725,-1.40935 3.26149,-1.76805 6.90134,-0.87343 17.32746,-0.56674 19.91473,0.5858 1.06121,0.47273 1.82982,0.52175 6.10881,0.38956 3.43276,-0.10605 4.99647,-0.0496 5.235,0.18891 0.44529,0.44528 1.14387,0.41694 1.7884,-0.0726 0.89626,-0.68068 0.16881,-3.56693 -1.69319,-6.71796 -0.85993,-1.45524 -1.65187,-2.87616 -1.75987,-3.15762 -0.53301,-1.389 1.00774,-1.93099 2.09439,-0.73673 0.3378,0.37125 1.03621,1.57154 1.55202,2.66732 0.80214,1.70403 1.10984,2.06113 2.12658,2.46795 1.43394,0.57375 1.86718,1.20029 2.72425,3.93973 0.36135,1.155 0.84102,2.39463 1.06592,2.75474 0.22491,0.36011 1.07254,2.60676 1.88362,4.99256 1.47685,4.34414 1.8976,5.20449 4.39055,8.9777 0.73586,1.11375 1.21897,2.025 1.07359,2.025 -0.14539,0 -1.05675,-0.91125 -2.02525,-2.025 z m -59.12299,-5.56141 c 0.083,-0.79003 0.58148,-2.31088 1.10765,-3.37967 0.7438,-1.51089 1.21127,-2.07315 2.10103,-2.52707 0.97967,-0.49979 1.13763,-0.71819 1.09743,-1.51736 -0.0463,-0.92089 -1.09193,-2.06806 -1.89844,-2.08282 -0.99418,-0.0182 -1.35422,-2.89043 -0.46055,-3.674 0.28875,-0.25317 0.9696,-0.68559 1.513,-0.96093 0.54341,-0.27533 1.13366,-0.86536 1.31167,-1.31117 0.17801,-0.44581 0.56049,-1.28307 0.84996,-1.86057 0.34853,-0.69534 0.58021,-2.06333 0.68588,-4.05 0.18222,-3.42569 0.8268,-5.70446 1.88403,-6.66061 0.63792,-0.57693 0.73046,-0.91973 0.73046,-2.70603 0,-2.14873 0.65411,-4.91831 2.06714,-8.75245 0.46233,-1.2545 0.97235,-2.68591 1.13338,-3.18091 0.18586,-0.57136 0.44919,-0.85041 0.72112,-0.76418 0.2356,0.0747 0.86447,0.13219 1.39749,0.12774 0.82177,-0.007 1.01604,0.134 1.27751,0.92628 0.36482,1.10541 -0.32709,3.89252 -1.03364,4.16366 -0.38171,0.14647 -2.263,5.45157 -2.263,6.38148 0,0.21115 0.24696,0.29426 0.6,0.20194 0.78798,-0.20606 0.78576,0.46392 -0.006,1.80583 -0.33329,0.56487 -0.52901,1.22762 -0.43494,1.47277 0.10477,0.27303 -0.12872,0.64214 -0.60262,0.95265 -0.66615,0.43648 -0.76655,0.7032 -0.72246,1.91938 0.0282,0.77684 -0.31841,2.89745 -0.77016,4.71245 -0.45174,1.815 -0.91115,4.245 -1.02092,5.4 -0.116,1.22064 -0.41801,2.4106 -0.72125,2.84175 -0.29226,0.41554 -0.52168,1.28831 -0.52168,1.98454 0,1.49605 -0.91535,2.82371 -1.94678,2.82371 -0.80732,0 -1.09257,0.51581 -0.70358,1.27229 0.37913,0.7373 -0.46571,2.25994 -1.32134,2.38141 -0.48484,0.0688 -1.0766,0.76839 -2.0748,2.45279 -1.892,3.19264 -2.16569,3.41527 -1.97562,1.6071 z m 6.07212,-5.91359 c 0.10197,-0.165 0.24494,-0.3 0.3177,-0.3 0.0728,0 0.1323,0.135 0.1323,0.3 0,0.165 -0.14297,0.3 -0.31771,0.3 -0.17474,0 -0.23427,-0.135 -0.13229,-0.3 z m 18.53223,-16.95822 c -4.81341,-0.43671 -8.42988,-1.14574 -9.98223,-1.95708 -0.93488,-0.48862 -1.05999,-0.69771 -1.14105,-1.907 -0.0837,-1.24861 -0.0275,-1.37418 0.69697,-1.556 0.45178,-0.11338 0.93224,-0.0535 1.12604,0.14026 0.20837,0.20837 1.56298,0.33804 3.53154,0.33804 2.76372,0 3.26338,-0.0772 3.7127,-0.57371 0.41405,-0.45752 1.10695,-0.61316 3.42149,-0.76855 1.59627,-0.10716 3.19372,-0.3377 3.54989,-0.51231 0.3569,-0.17497 1.16489,-0.23024 1.8,-0.12314 0.63383,0.10689 2.4669,0.27373 4.0735,0.37076 2.51752,0.15204 2.94679,0.10945 3.1071,-0.30832 0.10318,-0.26889 0.52269,-0.48473 0.94212,-0.48473 0.73562,0 0.72233,-0.0367 -0.4904,-1.3523 -1.41672,-1.53697 -1.88161,-2.50323 -1.99213,-4.14058 -0.0424,-0.62859 -0.32613,-1.41801 -0.63044,-1.75427 -0.30431,-0.33626 -0.5147,-0.90584 -0.46754,-1.26573 0.20337,-1.55194 -1.70088,-7.93096 -3.35268,-11.23112 -0.38705,-0.7733 -1.0001,-2.30704 -1.36233,-3.4083 -0.36222,-1.10126 -0.85348,-2.16404 -1.09169,-2.36173 -0.2382,-0.19769 -0.43309,-0.61291 -0.43309,-0.92271 0,-0.3098 -0.12453,-0.56327 -0.27674,-0.56327 -0.36995,0 -1.01996,-2.01529 -0.81896,-2.5391 0.0875,-0.22789 0.44261,-0.45858 0.78923,-0.51263 0.34663,-0.0541 0.63883,-0.20075 0.64933,-0.32601 0.0354,-0.42264 -0.37963,-5.15411 -0.67114,-7.65047 -0.19948,-1.70821 -0.19016,-2.66363 0.03,-3.075 0.31791,-0.59402 1.03946,-0.80051 1.29917,-0.37179 0.075,0.12375 0.50081,2.25 0.94632,4.725 0.84816,4.71179 1.03645,5.34175 3.99016,13.35 2.88131,7.81196 2.98203,8.1008 3.81828,10.95001 1.75299,5.97263 3.54118,11.46038 4.07738,12.51304 0.31183,0.61218 0.56697,1.39267 0.56697,1.73442 0,0.75841 -0.75054,1.10005 -1.34068,0.61027 -0.56624,-0.46993 -1.05932,-0.14412 -1.05932,0.69997 0,0.83917 -0.5315,1.3923 -1.33784,1.3923 -0.62599,0 -1.47951,0.98265 -1.14451,1.31765 0.3065,0.3065 1.44166,0.20303 1.80963,-0.16494 0.44369,-0.44369 1.27272,0.17676 1.27272,0.95251 0,0.79702 -2.06543,0.89323 -5.1,0.23754 -1.4025,-0.30305 -3.495,-0.63864 -4.65,-0.74578 -1.93509,-0.17949 -2.06767,-0.15561 -1.68827,0.30412 0.33022,0.40013 0.3378,0.58798 0.0383,0.9489 -0.4263,0.51365 -0.46627,0.5136 -6.21777,-0.008 z m 5.01777,-11.01427 c 0,-0.79337 0.83812,-1.19164 2.84708,-1.3529 2.20336,-0.17686 2.50896,0.1491 0.87174,0.92983 -1.59751,0.76181 -3.71882,1.00313 -3.71882,0.42307 z m 27.60174,-10.42644 c -0.56378,-0.34843 -0.13418,-0.8212 1.67301,-1.84112 l 1.62525,-0.91723 0,-1.52 c 0,-2.14154 0.86126,-3.42954 4.63309,-6.92871 3.44762,-3.19839 4.36691,-4.57363 4.36691,-6.53281 0,-0.831 0.292,-1.78381 0.85411,-2.78695 0.56987,-1.01699 0.92013,-2.17076 1.05247,-3.4669 0.32026,-3.13659 1.40191,-9.36266 1.73453,-9.98418 0.22965,-0.42911 0.18734,-0.70499 -0.16844,-1.09812 -0.51771,-0.57207 -1.59877,-4.18688 -1.88311,-6.29671 -0.21064,-1.56299 0.43739,-2.34911 1.47757,-1.79242 0.32134,0.17198 0.65184,0.2451 0.73444,0.1625 0.27711,-0.27711 -2.92882,-7.24051 -3.64166,-7.90983 -0.88697,-0.83283 -1.22134,-1.88147 -1.79795,-5.6386 -0.36106,-2.3526 -0.73572,-3.55017 -1.73619,-5.54947 -0.70168,-1.40221 -1.62981,-2.95471 -2.06252,-3.45 -1.5256,-1.74623 -1.37108,-4.43635 0.27861,-4.85039 0.60686,-0.15231 0.8949,-0.0233 1.38702,0.62119 0.34161,0.44739 1.0575,1.28025 1.59087,1.85081 0.53337,0.57055 1.19089,1.47398 1.46118,2.00762 0.27028,0.53363 0.66707,1.17274 0.88175,1.42024 0.21468,0.2475 0.84582,1.8675 1.40252,3.6 0.82519,2.56802 1.15429,3.21857 1.78126,3.52113 0.49487,0.23881 0.96004,0.88056 1.30472,1.8 1.28085,3.41667 3.10761,6.93571 3.78993,7.30088 0.38989,0.20866 0.74264,0.35657 0.78389,0.32869 0.41538,-0.28077 0.86909,0.30031 1.7587,2.25244 1.97012,4.32313 2.36325,7.74411 1.55452,13.52715 -0.38563,2.7575 -0.52914,3.1819 -1.36954,4.05 -1.20898,1.24882 -1.60534,3.25047 -0.81628,4.12237 0.48423,0.53506 0.49841,0.7947 0.15941,2.91734 -0.3029,1.89654 -0.65381,2.79789 -1.88629,4.84505 -1.85301,3.07785 -2.98764,4.40017 -4.39712,5.12448 -0.59312,0.3048 -2.10248,1.5456 -3.35414,2.75733 -6.91427,6.69374 -7.11903,6.85315 -8.80334,6.85315 -0.3795,0 -1.04497,0.27921 -1.4788,0.62046 -0.97102,0.7638 -2.38322,1.19406 -2.89038,0.88061 z m 20.24287,-35.65464 c 0.12534,-1.07997 0.0651,-2.26117 -0.15688,-3.075 l -0.36039,-1.32144 -0.53021,1.2 c -0.29161,0.66 -0.6839,1.85679 -0.87175,2.65953 -0.38924,1.66332 -0.1067,2.29047 1.03189,2.29047 0.61055,0 0.70562,-0.18788 0.88734,-1.75356 z m -2.54461,0.85356 c 0,-0.165 -0.135,-0.3 -0.3,-0.3 -0.165,0 -0.3,0.135 -0.3,0.3 0,0.165 0.135,0.3 0.3,0.3 0.165,0 0.3,-0.135 0.3,-0.3 z m -0.15208,-16.12199 c -0.46998,-0.93654 -0.58382,-1.02282 -0.67061,-0.50835 -0.0575,0.34082 0.0416,1.00405 0.22022,1.47386 0.24521,0.64495 0.40948,0.76947 0.67061,0.50834 0.26113,-0.26113 0.20719,-0.62216 -0.22022,-1.47385 z m -58.93247,46.96352 c -1.24703,-5.8142 -1.06849,-9.34352 0.73311,-14.49153 0.98748,-2.82166 1.70471,-3.93789 2.29563,-3.57268 0.14069,0.087 0.25581,2.24263 0.25581,4.79039 0,4.21576 0.0472,4.63134 0.525,4.62166 0.28875,-0.006 0.8625,-0.20356 1.275,-0.43937 1.15976,-0.66297 1.29547,-0.55158 1.09651,0.9 -0.21386,1.56029 -0.21254,1.5608 2.40425,0.925 3.14525,-0.7642 3.99924,-0.84604 3.99924,-0.38326 0,0.52814 -3.97822,2.30826 -5.15848,2.30826 -1.04524,0 -2.03666,0.47578 -2.05372,0.98556 -0.007,0.20044 -0.40573,0.82469 -0.88671,1.3872 -0.74569,0.87208 -0.94385,0.96523 -1.34506,0.63225 -0.63893,-0.53026 -0.82961,-0.26741 -1.37094,1.88983 -0.62072,2.47359 -1.29823,2.64461 -1.76964,0.44669 z m -27.16545,-6.15549 c -0.81647,-0.19411 -4.56279,-3.0717 -5.9476,-4.56841 -0.61962,-0.66969 -1.33423,-1.21763 -1.58802,-1.21763 -0.5149,0 -2.19602,-1.63011 -3.56084,-3.4528 -0.49304,-0.65846 -1.85494,-2.15627 -3.02643,-3.32847 -3.635712,-3.63791 -5.265132,-6.77523 -8.163798,-15.71873 -1.704205,-5.25812 -1.999954,-7.6523 -1.599557,-12.94888 0.320021,-4.23332 0.589394,-5.52794 1.768841,-8.50112 0.327274,-0.825 0.75291,-2.69296 0.945858,-4.15102 0.762055,-5.75869 3.352991,-9.78188 7.966916,-12.37101 0.91381,-0.51278 2.04247,-1.47335 2.5429,-2.16418 0.4949,-0.68318 1.25436,-1.47446 1.68768,-1.75838 0.76093,-0.49858 0.805,-0.49353 1.28875,0.1478 l 0.50088,0.66403 1.0166,-1.04886 c 0.99588,-1.02749 1.05378,-1.04518 2.8422,-0.86847 1.00409,0.0992 2.05643,0.38082 2.33853,0.62579 0.3101,0.2693 0.79506,0.3746 1.22649,0.26632 0.99586,-0.24995 1.8414,0.42325 1.57719,1.25571 -0.11382,0.35861 -2.23594,2.64332 -4.71582,5.07714 -2.47988,2.43382 -4.69637,4.78593 -4.92552,5.22692 -0.22916,0.44098 -0.95859,1.42794 -1.62095,2.19324 -0.66237,0.76531 -1.2043,1.64289 -1.2043,1.9502 0,0.84822 -1.4035,2.3359 -2.41288,2.5576 -0.49316,0.10832 -1.13076,0.53167 -1.41689,0.94079 -0.28613,0.40912 -0.82934,1.13253 -1.20714,1.60757 -0.87462,1.09976 -2.085762,4.6445 -2.502195,7.32338 -0.17737,1.14101 -0.511134,2.60924 -0.741696,3.26272 -0.253546,0.71863 -0.419203,2.39352 -0.419203,4.2384 0,3.55969 0.657123,6.18463 2.859944,11.42431 0.95131,2.26281 1.34583,3.58287 1.25522,4.2 -0.19078,1.29952 1.19968,3.55108 2.31583,3.75 0.97019,0.17291 2.16855,2.14642 2.48296,4.08906 0.1789,1.1053 2.03609,4.01094 2.56368,4.01094 0.13725,0 0.17308,-0.43875 0.0796,-0.975 -0.39021,-2.23863 1.24447,-2.2485 3.05492,-0.0185 0.62581,0.77087 2.3866,2.73666 3.91285,4.36842 2.51928,2.69344 3.25874,3.82503 2.49953,3.82503 -0.1515,0 -0.45525,0.0515 -0.675,0.11434 -0.21974,0.0629 -0.66953,0.0501 -0.99953,-0.0283 z m 9.09028,-24.11516 c -0.61034,-0.31324 -1.21784,-0.75262 -1.35,-0.97641 -0.13216,-0.22378 -0.53381,-0.56086 -0.89256,-0.74906 -0.35875,-0.1882 -0.99252,-1.08541 -1.4084,-1.9938 -0.41587,-0.90838 -0.94762,-1.65161 -1.18165,-1.65161 -0.23404,0 -1.13248,-1.11069 -1.99654,-2.46821 -1.88929,-2.96825 -2.37055,-4.83866 -2.60693,-10.13179 -0.14515,-3.25028 -0.0675,-4.23768 0.58266,-7.40972 0.82047,-4.00287 2.33436,-7.5217 3.99856,-9.29406 0.87547,-0.93237 1.0618,-0.99622 2.90729,-0.99622 1.08453,0 2.04453,0.11756 2.13334,0.26125 0.0888,0.14369 0.55583,0.34013 1.03784,0.43653 0.81704,0.16341 0.88397,0.28284 0.9884,1.76375 0.0944,1.33853 -0.0154,1.77729 -0.69798,2.78847 -0.44549,0.66 -1.11192,1.38361 -1.48095,1.60802 -0.60303,0.36671 -0.72489,0.33653 -1.20355,-0.29804 -0.47927,-0.63537 -0.55277,-0.65346 -0.73419,-0.1807 -0.11393,0.29691 0.007,0.84444 0.27923,1.25919 0.54302,0.82875 0.24978,2.11412 -0.6357,2.78653 -0.64621,0.49071 -1.13932,4.59062 -0.59275,4.92836 0.25976,0.16052 0.37796,1.76138 0.41388,5.60586 0.0467,4.99183 0.10766,5.54072 0.84312,7.58598 0.43605,1.21264 1.18131,2.6098 1.65612,3.1048 0.68423,0.71332 2.10048,3.35255 2.10048,3.91432 0,0.063 -0.23625,0.24091 -0.525,0.39533 -0.36922,0.19745 -0.8543,0.11176 -1.63472,-0.28877 z m 45.69626,0.0581 c -0.25974,-0.16452 -0.5181,-1.25025 -0.69493,-2.92041 -0.64901,-6.12984 -1.20931,-9.62287 -1.72512,-10.75478 -0.3017,-0.66206 -1.61609,-2.35125 -2.92088,-3.75375 -1.41493,-1.52089 -2.3301,-2.74991 -2.26769,-3.04535 0.0576,-0.27244 0.49102,-0.65539 0.96325,-0.85099 1.09744,-0.45458 2.25313,0.0575 4.43247,1.96391 1.40649,1.23037 1.66146,1.34366 2.61959,1.16391 0.87685,-0.1645 1.24993,-0.0554 2.14534,0.62761 1.32868,1.01343 2.4933,3.44527 2.72498,5.69002 0.18764,1.81803 -0.13289,2.12655 -0.93597,0.90089 -0.7417,-1.13198 -1.1085,-0.90735 -1.10217,0.675 0.003,0.78375 -0.0919,2.91 -0.2111,4.725 -0.22667,3.45039 -0.72314,4.93927 -1.8477,5.54111 -0.68848,0.36846 -0.65953,0.36753 -1.18007,0.0378 z m 13.63772,-5.08967 c -0.21868,-0.35383 -0.6539,-3.47601 -1.05212,-7.54755 -0.22021,-2.25153 -0.4515,-2.95964 -1.92892,-5.90553 -0.92329,-1.84098 -2.50595,-4.60475 -3.51702,-6.14172 -1.01107,-1.53696 -2.30175,-3.67197 -2.86819,-4.74447 -0.56643,-1.0725 -1.36246,-2.40871 -1.76895,-2.96936 -1.41491,-1.95154 -0.64381,-2.24687 2.15401,-0.82498 2.99638,1.52279 4.68017,3.35347 6.45845,7.02192 0.82076,1.69315 1.79234,3.44835 2.15906,3.90044 1.17315,1.44623 2.54957,4.94193 3.02645,7.68628 0.56835,3.27075 0.61666,8.26084 0.087,8.98521 -0.45158,0.61758 -2.45822,1.01147 -2.74975,0.53976 z m -48.88876,-0.88182 c -0.0937,-0.15167 -0.78928,-2.0154 -1.54564,-4.14161 -1.16643,-3.27898 -1.40103,-4.32125 -1.54541,-6.86584 -0.20978,-3.69731 0.27562,-7.05494 1.26363,-8.74085 0.82984,-1.41603 2.45115,-2.90065 2.87895,-2.63626 0.15743,0.0973 0.88822,0.21749 1.62397,0.26709 1.47616,0.0995 2.839,0.82867 2.839,1.51892 0,0.24479 -0.3375,0.73852 -0.75,1.09719 -0.4125,0.35866 -0.75,0.82716 -0.75,1.0411 0,0.21394 -0.34528,0.61521 -0.76729,0.89172 -1.05062,0.6884 -1.85256,2.37597 -2.21078,4.65226 -0.25577,1.62524 -0.24009,3.79466 0.0863,11.95133 0.0301,0.7525 -0.0965,1.07007 -0.4553,1.14161 -0.27337,0.0545 -0.57373,-0.025 -0.66747,-0.17666 z"
         id="path4197"
         inkscape:connector-curvature="0" />
    </g>
  </g>
</svg>
